{"glyphs":{"0":{"ha":819,"x_min":28,"x_max":791,"o":"m 791 546 q 677 932 791 794 q 416 1055 575 1055 q 148 937 252 1055 q 28 543 28 800 q 133 152 28 315 q 412 -18 243 -18 q 681 153 568 -18 q 791 546 791 320 m 514 395 q 486 257 514 321 q 412 189 455 189 q 339 254 368 189 q 313 389 313 313 q 412 585 313 585 q 514 395 514 585 "},"1":{"ha":576,"x_min":12,"x_max":509,"o":"m 509 1044 l 443 1082 q 283 999 344 1028 q 12 876 89 909 l 77 648 q 125 664 104 659 q 175 675 163 673 q 182 389 180 441 q 186 -1 187 208 l 488 -1 q 494 553 491 376 q 509 1044 504 906 "},"2":{"ha":639,"x_min":32,"x_max":614,"o":"m 614 757 q 523 978 614 894 q 281 1061 432 1061 q 64 1025 165 1061 l 32 660 q 119 681 75 681 q 199 652 165 681 q 240 550 240 616 q 190 337 240 456 q 50 69 152 247 l 81 0 l 518 0 q 545 103 535 67 q 574 203 564 173 q 511 195 534 197 q 425 189 452 189 l 310 189 q 614 757 614 544 "},"3":{"ha":682,"x_min":37,"x_max":652,"o":"m 652 775 q 556 981 652 901 q 315 1063 460 1061 q 64 1022 182 1063 l 37 681 q 176 705 117 705 q 279 614 279 705 q 258 549 279 578 q 171 504 230 511 l 197 367 q 225 368 212 368 q 315 338 281 368 q 345 269 345 310 q 314 199 345 227 q 236 171 283 171 q 109 196 182 171 q 134 97 125 134 l 157 -4 q 298 -12 182 -12 q 497 45 420 -12 q 583 227 583 110 q 444 432 583 371 q 604 568 559 496 q 652 775 652 644 "},"4":{"ha":786,"x_min":-16,"x_max":790,"o":"m 790 340 q 742 328 764 330 q 656 325 720 325 l 647 325 q 653 488 650 433 q 673 1042 666 871 l 332 1042 q 343 778 339 905 l 163 778 q 140 528 170 630 q 77 346 109 417 q -16 168 55 296 l 359 168 q 363 0 363 71 l 646 0 q 647 168 646 74 l 746 168 q 768 258 759 224 l 790 340 m 361 326 l 244 326 q 355 575 301 415 q 361 326 359 428 "},"5":{"ha":694,"x_min":28,"x_max":660,"o":"m 660 338 q 581 543 660 460 q 393 624 504 624 q 239 604 315 624 l 268 714 l 557 714 l 618 1048 q 576 1042 591 1043 q 528 1042 576 1042 l 149 1042 q 102 733 122 857 q 28 383 54 491 l 102 310 q 256 344 175 344 q 389 249 389 344 q 221 143 389 143 q 74 184 149 143 q 89 92 83 127 q 102 0 98 28 q 271 -18 177 -18 q 543 66 438 -18 q 660 338 660 161 "},"6":{"ha":742,"x_min":28,"x_max":721,"o":"m 721 379 q 648 600 721 515 q 469 682 578 682 q 339 654 405 682 q 469 848 363 709 q 618 1007 571 963 l 297 1075 q 100 726 163 877 q 28 400 28 555 q 127 81 28 193 q 390 -28 222 -26 q 631 80 542 -30 q 721 379 721 189 m 478 314 q 451 221 478 263 q 390 179 425 179 q 322 228 347 179 q 300 330 300 271 q 314 404 300 370 q 387 435 345 435 q 452 401 425 435 q 478 314 478 368 "},"7":{"ha":746,"x_min":39,"x_max":733,"o":"m 733 981 l 681 1039 l 39 1042 l 53 686 q 180 701 96 696 q 300 707 264 706 q 221 403 262 588 q 147 0 175 193 l 372 -12 q 526 530 436 278 q 657 833 572 659 q 733 981 693 905 "},"8":{"ha":762,"x_min":28,"x_max":734,"o":"m 734 722 q 632 962 734 863 q 380 1061 529 1061 q 122 955 224 1061 q 28 722 28 856 q 175 432 28 509 q 87 249 87 363 q 177 64 87 142 q 380 -14 264 -14 q 578 64 488 -14 q 672 250 672 145 q 585 436 672 363 q 734 722 734 509 m 464 627 q 443 543 464 576 q 380 507 420 507 q 322 542 345 507 q 298 625 298 577 q 321 693 298 664 q 380 722 345 722 q 440 693 416 722 q 464 627 464 664 m 440 249 q 380 163 440 163 q 319 245 319 163 q 337 299 319 275 q 380 323 355 323 q 423 300 406 324 q 440 249 440 276 "},"9":{"ha":764,"x_min":31,"x_max":734,"o":"m 734 653 q 638 946 734 830 q 396 1063 543 1063 q 137 944 243 1063 q 31 653 31 825 q 149 345 31 451 q 357 264 241 262 q 280 96 337 201 q 228 4 257 53 l 437 -28 q 638 300 553 118 q 734 653 734 508 m 460 576 q 446 494 460 539 q 425 441 435 456 q 286 571 286 449 q 312 646 286 618 q 370 672 335 672 q 434 645 408 672 q 460 576 460 618 "}," ":{"ha":278,"x_min":0,"x_max":0,"o":""},"!":{"ha":603,"x_min":90,"x_max":513,"o":"m 513 1042 l 90 1042 q 163 668 139 783 q 220 306 203 416 q 302 318 264 313 q 375 326 372 326 q 374 344 374 333 q 395 487 374 382 q 435 675 415 581 q 513 1042 475 881 m 437 104 q 392 196 437 159 q 288 231 348 231 q 177 196 221 231 q 132 106 132 161 q 178 15 132 52 q 288 -21 224 -21 q 392 15 347 -21 q 437 104 437 52 "},"\"":{"ha":550,"x_min":83,"x_max":467,"o":"m 467 1042 l 301 1042 l 314 557 l 457 557 l 467 1042 m 250 1042 l 83 1042 l 96 557 l 239 557 l 250 1042 "},"#":{"ha":789,"x_min":56,"x_max":733,"o":"m 733 737 l 631 739 q 646 942 646 924 l 450 942 l 450 737 l 336 737 l 336 943 l 140 943 l 157 737 l 56 737 l 75 555 l 171 555 l 180 433 l 87 433 l 100 301 l 189 301 l 207 98 l 338 98 l 338 301 l 450 301 l 450 98 l 581 98 l 599 301 l 688 301 l 700 433 l 607 433 l 616 555 l 713 555 l 733 737 m 450 433 l 336 433 l 336 555 l 450 555 l 450 433 "},"$":{"ha":636,"x_min":25,"x_max":600,"o":"m 600 1019 q 511 1035 556 1030 q 435 1039 461 1038 l 439 1124 l 231 1124 l 240 1011 q 87 911 143 981 q 25 722 25 835 q 87 549 25 638 q 204 410 146 480 q 267 285 267 336 q 172 197 267 197 q 111 205 142 197 q 125 122 121 152 q 134 47 131 69 q 201 35 182 35 l 252 35 l 254 -98 l 382 -98 l 386 61 q 481 127 450 93 q 529 264 529 180 q 475 432 529 335 q 421 589 421 528 q 516 693 421 693 q 585 681 547 693 l 600 1019 "},"%":{"ha":1104,"x_min":35,"x_max":1070,"o":"m 1069 296 q 1004 517 1068 438 q 856 589 947 589 q 701 517 762 589 q 635 293 635 437 q 696 74 635 165 q 854 -21 759 -21 q 1007 74 943 -21 q 1069 296 1070 168 m 911 207 q 896 144 911 174 q 854 113 878 113 q 812 144 829 113 q 796 207 796 173 q 854 296 796 296 q 911 207 911 296 m 924 990 l 758 1063 l 183 14 l 292 -41 l 924 990 m 468 770 q 404 992 468 913 q 254 1064 347 1064 q 101 992 161 1064 q 35 770 35 913 q 94 550 35 640 q 253 456 157 456 q 405 549 341 456 q 468 770 468 643 m 310 682 q 294 621 310 650 q 253 589 276 589 q 212 619 228 589 q 196 681 196 647 q 253 770 196 770 q 310 682 310 770 "},"&":{"ha":879,"x_min":28,"x_max":851,"o":"m 851 334 q 807 400 826 369 l 754 484 q 715 387 731 416 q 660 304 676 326 q 566 689 566 494 q 614 900 566 816 q 746 1042 650 960 l 278 1042 q 182 804 182 966 q 268 525 182 713 q 87 400 152 488 q 28 221 28 319 q 114 26 28 102 q 319 -47 197 -47 q 558 49 444 -47 l 593 0 l 808 0 q 713 165 740 112 q 817 281 772 219 q 851 334 836 308 m 468 164 q 390 134 422 137 q 321 149 353 130 q 288 208 288 170 q 371 313 288 279 l 468 164 "},"'":{"ha":332,"x_min":83,"x_max":249,"o":"m 249 1042 l 83 1042 l 96 557 l 239 557 l 249 1042 "},"(":{"ha":561,"x_min":60,"x_max":501,"o":"m 501 1036 l 212 1206 q 60 660 60 1018 q 165 176 60 420 q 353 -140 243 -4 l 484 -68 q 343 542 343 170 q 501 1036 344 837 "},")":{"ha":561,"x_min":61,"x_max":501,"o":"m 501 660 q 349 1206 501 1018 l 61 1036 q 220 542 218 837 q 78 -68 221 176 l 208 -140 q 396 176 318 -5 q 501 660 501 420 "},"*":{"ha":629,"x_min":49,"x_max":581,"o":"m 581 705 l 581 838 l 421 832 l 504 966 l 392 1034 l 317 890 l 239 1035 l 123 966 l 208 828 l 49 835 l 49 703 l 208 710 l 123 574 l 239 507 l 313 650 l 392 505 l 504 571 l 419 710 l 581 705 "},"+":{"ha":751,"x_min":83,"x_max":668,"o":"m 668 574 l 460 574 l 465 770 l 281 770 l 286 574 l 83 574 l 117 411 l 292 411 q 294 218 294 253 l 449 218 l 454 411 l 637 411 l 668 574 "},",":{"ha":385,"x_min":69,"x_max":315,"o":"m 304 46 q 315 149 315 94 q 304 256 315 206 q 193 207 235 222 q 75 171 109 180 q 100 8 100 66 q 69 -196 101 -65 q 126 -214 106 -209 q 176 -224 165 -222 q 304 46 267 -121 "},"-":{"ha":576,"x_min":83,"x_max":493,"o":"m 493 446 l 83 446 l 117 239 l 463 239 l 493 446 "},".":{"ha":416,"x_min":56,"x_max":361,"o":"m 361 104 q 316 195 361 160 q 210 231 271 231 q 100 196 144 231 q 56 106 56 161 q 102 15 56 52 q 210 -21 146 -21 q 316 15 271 -21 q 361 104 361 51 "},"/":{"ha":590,"x_min":-22,"x_max":575,"o":"m 575 1069 l 376 1133 q 199 562 277 792 q -22 -66 26 68 l 115 -103 l 575 1069 "},":":{"ha":472,"x_min":83,"x_max":390,"o":"m 389 561 q 343 653 389 616 q 237 688 299 688 q 127 653 172 688 q 83 562 83 618 q 129 472 83 507 q 237 436 174 436 q 343 472 297 436 q 389 561 389 508 m 390 104 q 345 196 390 159 q 240 231 301 231 q 129 196 174 231 q 83 106 83 161 q 131 15 83 52 q 240 -21 176 -21 q 345 15 299 -21 q 390 104 390 52 "},";":{"ha":472,"x_min":83,"x_max":389,"o":"m 389 561 q 343 653 389 616 q 237 688 299 688 q 127 653 172 688 q 83 562 83 618 q 129 472 83 507 q 237 436 174 436 q 343 472 297 436 q 389 561 389 508 m 361 46 q 372 149 372 94 q 361 256 372 206 q 250 207 292 223 q 132 171 164 179 q 158 8 158 66 q 126 -196 159 -65 q 184 -214 163 -208 q 235 -224 222 -222 q 361 46 323 -121 "},"<":{"ha":561,"x_min":69,"x_max":492,"o":"m 492 228 l 492 414 l 281 521 l 492 628 l 492 814 l 69 576 l 69 465 l 492 228 "},"=":{"ha":701,"x_min":83,"x_max":618,"o":"m 618 720 l 83 720 l 97 562 l 604 562 l 618 720 m 596 456 l 107 456 l 119 294 l 582 294 l 596 456 "},">":{"ha":561,"x_min":69,"x_max":492,"o":"m 492 465 l 492 576 l 69 814 l 69 628 l 281 521 l 69 414 l 69 228 l 492 465 "},"?":{"ha":686,"x_min":62,"x_max":644,"o":"m 644 796 q 282 1071 644 1071 q 83 1040 175 1071 l 62 686 q 168 714 117 714 q 232 689 205 714 q 258 625 258 664 q 216 505 258 584 q 174 363 174 427 q 192 277 174 317 q 285 304 220 292 q 374 318 354 316 q 359 370 359 340 q 460 500 359 399 q 581 628 560 602 q 644 796 644 712 m 446 104 q 400 196 446 159 q 296 231 357 231 q 184 196 229 231 q 139 106 139 161 q 185 15 139 52 q 296 -21 232 -21 q 400 15 355 -21 q 446 104 446 52 "},"@":{"ha":1039,"x_min":22,"x_max":1017,"o":"m 1017 567 q 873 896 1017 768 q 541 1018 736 1018 q 176 883 322 1018 q 22 517 22 742 q 197 129 22 267 q 501 21 335 21 q 591 25 553 21 l 591 139 q 521 138 551 137 q 254 259 354 139 q 163 525 161 368 q 275 782 163 673 q 538 890 387 890 q 762 814 665 890 q 879 551 879 721 q 855 399 879 458 q 782 335 829 336 q 729 416 734 334 q 707 633 718 589 q 587 790 679 751 q 463 804 537 812 l 389 627 q 415 629 402 629 q 485 597 456 629 q 514 526 510 568 q 464 536 492 536 q 348 492 399 536 q 292 370 292 443 q 332 258 292 304 q 453 207 377 207 q 564 261 509 207 q 714 205 623 205 q 1017 567 1017 205 m 542 340 q 502 330 524 330 q 465 366 465 330 q 528 400 465 409 l 542 340 "},"A":{"ha":854,"x_min":-11,"x_max":857,"o":"m 857 0 q 728 546 774 342 q 624 1042 643 935 l 216 1042 q 123 553 179 810 q -11 0 33 168 l 186 0 l 222 131 q 256 62 244 87 l 294 -20 q 383 49 343 23 q 461 90 446 84 l 486 0 l 857 0 m 429 222 q 335 201 378 208 q 243 193 263 193 q 286 334 268 282 q 335 463 319 423 q 389 339 371 384 q 429 222 418 258 "},"B":{"ha":921,"x_min":28,"x_max":904,"o":"m 904 699 q 354 1067 904 1067 q 28 1042 157 1067 q 58 515 48 707 q 78 0 73 158 q 404 -25 252 -25 q 689 22 581 -25 q 829 215 829 83 q 800 315 829 268 q 722 382 770 361 q 846 488 796 413 q 904 699 904 576 m 628 571 q 476 471 628 465 l 486 675 q 586 651 548 676 q 628 571 628 623 m 606 249 q 465 160 606 154 l 469 326 q 493 328 481 328 q 606 249 606 328 "},"C":{"ha":825,"x_min":24,"x_max":794,"o":"m 794 615 l 772 1040 q 586 1055 715 1055 q 166 902 318 1055 q 24 525 24 758 q 189 115 24 273 q 557 -29 342 -29 q 751 0 675 -29 q 770 103 760 54 q 793 205 786 178 q 665 172 732 172 q 506 232 567 172 q 446 386 446 292 q 522 570 446 506 q 699 627 590 627 q 794 615 757 627 "},"D":{"ha":978,"x_min":28,"x_max":954,"o":"m 954 513 q 782 927 954 785 q 335 1060 621 1060 q 28 1039 175 1060 q 60 504 51 698 l 78 0 q 361 -18 178 -18 q 802 127 646 -18 q 954 513 954 268 m 676 429 q 607 243 676 307 q 465 187 552 193 l 475 612 q 612 576 558 616 q 676 429 676 529 "},"E":{"ha":771,"x_min":28,"x_max":741,"o":"m 741 1042 l 28 1042 q 54 532 49 714 l 74 0 l 681 0 q 704 104 694 63 q 729 205 724 184 q 644 189 670 191 q 457 180 508 181 l 464 332 q 572 330 536 332 q 671 318 651 323 q 688 414 678 372 q 711 507 704 482 q 468 504 543 502 l 478 633 q 603 627 546 632 q 711 612 686 616 l 741 1042 "},"F":{"ha":758,"x_min":28,"x_max":736,"o":"m 736 1042 l 28 1042 q 58 532 53 715 l 79 0 l 460 0 l 465 236 q 566 233 515 237 q 653 221 634 225 q 669 321 662 279 q 690 421 684 391 q 475 411 545 410 l 486 629 q 602 627 553 629 q 708 615 683 619 l 736 1042 "},"G":{"ha":942,"x_min":24,"x_max":935,"o":"m 935 446 l 647 446 q 665 307 661 349 l 676 171 q 519 217 587 168 q 439 380 439 275 q 534 565 439 492 q 724 629 618 629 q 851 612 806 629 l 814 1040 q 606 1055 703 1055 q 191 916 349 1055 q 24 505 24 768 q 215 92 24 231 q 636 -25 377 -25 q 901 1 810 -25 q 914 228 907 132 q 935 446 928 388 "},"H":{"ha":1080,"x_min":28,"x_max":1053,"o":"m 1053 1042 l 611 1042 l 646 403 q 567 397 596 398 q 472 400 522 395 l 504 1042 l 28 1042 q 58 498 52 693 l 78 0 l 460 0 l 467 338 q 503 261 492 288 l 538 178 q 600 208 556 189 q 650 228 637 224 l 657 0 l 1003 0 q 1022 498 1017 319 q 1053 1042 1041 875 "},"I":{"ha":526,"x_min":28,"x_max":498,"o":"m 498 1042 l 28 1042 l 74 0 l 454 0 q 472 488 465 309 l 498 1042 "},"J":{"ha":628,"x_min":7,"x_max":600,"o":"m 600 1042 l 132 1042 q 178 582 165 772 q 199 172 198 240 q 114 174 159 166 q 7 203 28 193 q 24 98 18 136 q 36 0 33 28 q 245 -22 148 -22 q 574 90 425 -22 q 578 582 568 303 q 600 1042 592 913 "},"K":{"ha":1014,"x_min":28,"x_max":1014,"o":"m 1014 987 q 828 1026 922 1006 l 636 1068 q 570 848 595 928 q 478 585 507 665 l 473 585 l 500 1042 l 28 1042 q 60 542 52 720 l 78 0 l 453 0 l 460 233 l 463 233 q 549 89 504 157 q 654 -57 629 -26 q 817 18 759 -7 q 965 82 920 62 q 798 243 857 180 q 688 368 697 353 q 861 696 798 573 q 1014 987 977 918 "},"L":{"ha":736,"x_min":28,"x_max":732,"o":"m 732 205 q 657 192 684 195 q 460 178 526 178 l 498 1042 l 28 1042 q 60 525 51 712 q 77 0 73 159 l 690 0 q 707 103 697 59 q 732 205 725 178 "},"M":{"ha":1152,"x_min":28,"x_max":1124,"o":"m 1124 1042 l 768 1042 q 697 886 725 940 q 590 696 619 742 q 486 882 524 803 q 416 1042 437 992 l 28 1042 q 62 525 53 738 q 81 0 76 155 l 325 0 l 332 317 l 590 -25 l 829 319 l 836 0 l 1082 0 q 1096 522 1086 290 q 1124 1042 1114 899 "},"N":{"ha":889,"x_min":28,"x_max":861,"o":"m 861 1042 l 610 1042 q 618 932 616 973 q 621 803 621 885 l 368 1042 l 28 1042 q 62 519 45 829 q 87 0 82 138 l 306 0 l 313 359 q 547 195 469 250 q 818 -14 729 56 q 835 564 825 313 q 861 1042 852 905 "},"O":{"ha":961,"x_min":24,"x_max":937,"o":"m 937 543 q 805 944 937 798 q 482 1082 680 1082 q 156 945 281 1082 q 24 543 24 799 q 145 140 24 304 q 482 -35 274 -35 q 814 138 684 -35 q 937 543 937 304 m 611 424 q 574 282 611 351 q 482 207 534 207 q 392 281 429 207 q 359 422 359 347 q 484 612 359 612 q 611 424 611 612 "},"P":{"ha":924,"x_min":28,"x_max":907,"o":"m 907 631 q 736 963 907 850 q 338 1063 587 1063 q 28 1042 134 1063 q 56 505 47 701 l 75 0 l 449 0 l 457 207 q 784 322 661 207 q 907 631 907 438 m 625 517 q 463 383 625 389 l 469 621 q 500 623 485 623 q 625 517 625 623 "},"Q":{"ha":961,"x_min":24,"x_max":937,"o":"m 937 546 q 805 947 937 801 q 482 1084 680 1084 q 156 948 280 1084 q 24 546 24 803 q 145 143 24 307 q 482 -32 274 -32 q 614 -4 548 -32 q 568 -62 583 -49 q 621 -144 584 -97 q 700 -222 652 -184 q 791 -171 758 -194 q 875 -97 850 -122 q 765 -25 827 -73 q 694 41 720 16 q 876 244 811 100 q 937 546 937 379 m 611 424 q 574 282 611 351 q 482 207 534 207 q 393 281 429 207 q 359 422 363 345 q 386 556 357 507 q 486 612 419 612 q 611 424 611 612 "},"R":{"ha":950,"x_min":28,"x_max":939,"o":"m 939 652 q 368 1061 939 1061 q 28 1042 214 1061 q 56 488 50 688 q 77 0 69 148 l 458 0 l 465 237 l 467 237 q 558 64 527 115 q 646 -62 626 -38 q 789 5 713 -29 q 929 64 897 52 q 811 182 850 137 q 714 310 734 279 q 869 431 807 347 q 939 652 939 527 m 631 505 q 572 408 631 441 q 472 383 528 383 l 476 615 q 576 597 536 618 q 631 505 631 570 "},"S":{"ha":699,"x_min":22,"x_max":673,"o":"m 673 615 l 653 1040 q 428 1069 528 1069 q 144 996 251 1069 q 22 749 22 912 q 151 478 22 592 q 284 361 218 419 q 325 261 325 317 q 224 184 325 184 q 123 203 198 184 q 150 102 140 140 q 171 0 165 31 q 335 -16 224 -16 q 538 54 456 -16 q 624 240 624 127 q 566 411 624 318 q 507 536 507 504 q 539 605 507 578 q 597 627 566 627 q 673 615 623 627 "},"T":{"ha":868,"x_min":12,"x_max":856,"o":"m 856 1042 l 12 1042 l 29 615 l 126 625 l 233 629 q 248 431 241 532 q 268 0 262 137 l 596 0 q 621 436 613 288 q 635 629 631 589 q 751 625 715 627 q 836 615 810 619 l 856 1042 "},"U":{"ha":974,"x_min":22,"x_max":946,"o":"m 946 1042 l 611 1042 q 636 618 629 770 q 644 174 644 313 q 591 160 615 160 q 480 218 508 160 q 453 431 454 273 q 452 750 450 637 q 460 1042 456 952 l 22 1042 q 47 631 27 856 q 92 296 68 387 q 231 61 133 136 q 570 -28 347 -28 q 924 35 750 -28 q 930 603 924 415 l 946 1042 "},"V":{"ha":908,"x_min":7,"x_max":901,"o":"m 901 1042 l 665 1042 q 627 833 644 913 q 571 619 590 685 q 518 832 535 755 q 486 1042 493 977 l 7 1042 q 186 505 125 699 q 338 0 292 155 l 574 0 q 721 497 664 319 q 901 1042 845 875 "},"W":{"ha":1432,"x_min":7,"x_max":1425,"o":"m 1425 1042 l 1189 1042 q 1145 832 1164 911 l 1075 555 q 1025 831 1043 734 q 989 1042 1000 977 l 568 1042 q 650 751 618 870 q 591 555 611 612 l 519 827 q 469 1042 484 975 l 7 1042 q 189 507 127 701 q 338 0 294 155 l 578 0 q 728 486 672 309 q 850 0 816 142 l 1093 0 q 1239 492 1184 314 q 1425 1042 1365 874 "},"X":{"ha":1019,"x_min":7,"x_max":1013,"o":"m 1013 1042 l 660 1042 q 610 928 631 972 q 555 828 572 857 q 511 930 529 883 q 473 1042 482 1013 l 7 1042 q 199 688 90 882 q 343 441 298 515 q 236 256 283 337 q 78 0 114 54 l 355 0 q 489 212 405 83 l 618 0 l 933 0 l 686 481 q 875 793 812 684 q 1013 1042 985 990 "},"Y":{"ha":975,"x_min":7,"x_max":966,"o":"m 966 1042 l 724 1042 q 685 904 700 952 q 615 720 641 782 l 550 903 q 507 1042 519 998 l 7 1042 q 163 770 109 869 q 281 534 245 607 q 306 269 300 339 q 318 0 315 84 l 665 0 q 679 265 675 172 q 700 534 692 439 q 839 806 787 709 l 966 1042 "},"Z":{"ha":875,"x_min":20,"x_max":861,"o":"m 861 1042 l 20 1042 l 35 615 q 172 632 122 629 q 265 637 241 636 l 82 0 l 694 0 q 730 129 717 86 q 765 235 755 204 q 681 216 711 220 q 488 207 549 203 l 861 1042 "},"[":{"ha":581,"x_min":56,"x_max":575,"o":"m 575 1193 l 56 1193 l 106 -149 l 543 -149 l 555 0 l 351 0 l 351 1042 l 567 1042 l 575 1193 "},"\\":{"ha":590,"x_min":16,"x_max":612,"o":"m 612 -66 q 392 562 507 229 q 214 1133 260 972 l 16 1069 l 475 -103 l 612 -66 "},"]":{"ha":581,"x_min":5,"x_max":525,"o":"m 525 1193 l 5 1193 l 14 1042 l 229 1042 l 229 0 l 25 0 l 37 -149 l 475 -149 l 525 1193 "},"^":{"ha":868,"x_min":167,"x_max":710,"o":"m 710 446 q 439 726 526 614 q 167 447 302 566 l 279 366 q 439 545 385 462 q 597 364 481 484 l 710 446 "},"_":{"ha":694,"x_min":0,"x_max":694,"o":"m 694 -227 l 694 -69 l 0 -69 l 0 -227 l 694 -227 "},"`":{"ha":868,"x_min":260,"x_max":632,"o":"m 632 1194 q 496 1278 545 1245 q 368 1389 406 1351 q 313 1304 333 1335 q 260 1229 277 1252 q 415 1145 355 1171 q 575 1095 530 1104 q 603 1140 593 1125 l 632 1194 "},"a":{"ha":854,"x_min":-11,"x_max":857,"o":"m 857 0 q 728 546 774 342 q 624 1042 643 935 l 216 1042 q 123 553 179 810 q -11 0 33 168 l 186 0 l 222 131 q 256 62 244 87 l 294 -20 q 383 49 343 23 q 461 90 446 84 l 486 0 l 857 0 m 429 222 q 335 201 378 208 q 243 193 263 193 q 286 334 268 282 q 335 463 319 423 q 389 339 371 384 q 429 222 418 258 "},"b":{"ha":921,"x_min":28,"x_max":904,"o":"m 904 699 q 354 1067 904 1067 q 28 1042 157 1067 q 58 515 48 707 q 78 0 73 158 q 404 -25 252 -25 q 689 22 581 -25 q 829 215 829 83 q 800 315 829 268 q 722 382 770 361 q 846 488 796 413 q 904 699 904 576 m 628 571 q 476 471 628 465 l 486 675 q 586 651 548 676 q 628 571 628 623 m 606 249 q 465 160 606 154 l 469 326 q 493 328 481 328 q 606 249 606 328 "},"c":{"ha":825,"x_min":24,"x_max":794,"o":"m 794 615 l 772 1040 q 586 1055 715 1055 q 166 902 318 1055 q 24 525 24 758 q 189 115 24 273 q 557 -29 342 -29 q 751 0 675 -29 q 770 103 760 54 q 793 205 786 178 q 665 172 732 172 q 506 232 567 172 q 446 386 446 292 q 522 570 446 506 q 699 627 590 627 q 794 615 757 627 "},"d":{"ha":978,"x_min":28,"x_max":954,"o":"m 954 513 q 782 927 954 785 q 335 1060 621 1060 q 28 1039 175 1060 q 60 504 51 698 l 78 0 q 361 -18 178 -18 q 802 127 646 -18 q 954 513 954 268 m 676 429 q 607 243 676 307 q 465 187 552 193 l 475 612 q 612 576 558 616 q 676 429 676 529 "},"e":{"ha":771,"x_min":28,"x_max":741,"o":"m 741 1042 l 28 1042 q 54 532 49 714 l 74 0 l 681 0 q 704 104 694 63 q 729 205 724 184 q 644 189 670 191 q 457 180 508 181 l 464 332 q 572 330 536 332 q 671 318 651 323 q 688 414 678 372 q 711 507 704 482 q 468 504 543 502 l 478 633 q 603 627 546 632 q 711 612 686 616 l 741 1042 "},"f":{"ha":758,"x_min":28,"x_max":736,"o":"m 736 1042 l 28 1042 q 58 532 53 715 l 79 0 l 460 0 l 465 236 q 566 233 515 237 q 653 221 634 225 q 669 321 662 279 q 690 421 684 391 q 475 411 545 410 l 486 629 q 602 627 553 629 q 708 615 683 619 l 736 1042 "},"g":{"ha":942,"x_min":24,"x_max":935,"o":"m 935 446 l 647 446 q 665 307 661 349 l 676 171 q 519 217 587 168 q 439 380 439 275 q 534 565 439 492 q 724 629 618 629 q 851 612 806 629 l 814 1040 q 606 1055 703 1055 q 191 916 349 1055 q 24 505 24 768 q 215 92 24 231 q 636 -25 377 -25 q 901 1 810 -25 q 914 228 907 132 q 935 446 928 388 "},"h":{"ha":1080,"x_min":28,"x_max":1053,"o":"m 1053 1042 l 611 1042 l 646 403 q 567 397 596 398 q 472 400 522 395 l 504 1042 l 28 1042 q 58 498 52 693 l 78 0 l 460 0 l 467 338 q 503 261 492 288 l 538 178 q 600 208 556 189 q 650 228 637 224 l 657 0 l 1003 0 q 1022 498 1017 319 q 1053 1042 1041 875 "},"i":{"ha":526,"x_min":28,"x_max":498,"o":"m 498 1042 l 28 1042 l 74 0 l 454 0 q 472 488 465 309 l 498 1042 "},"j":{"ha":628,"x_min":7,"x_max":600,"o":"m 600 1042 l 132 1042 q 178 582 165 772 q 199 172 198 240 q 114 174 159 166 q 7 203 28 193 q 24 98 18 136 q 36 0 33 28 q 245 -22 148 -22 q 574 90 425 -22 q 578 582 568 303 q 600 1042 592 913 "},"k":{"ha":1014,"x_min":28,"x_max":1014,"o":"m 1014 987 q 828 1026 922 1006 l 636 1068 q 570 848 595 928 q 478 585 507 665 l 473 585 l 500 1042 l 28 1042 q 60 542 52 720 l 78 0 l 453 0 l 460 233 l 463 233 q 549 89 504 157 q 654 -57 629 -26 q 817 18 759 -7 q 965 82 920 62 q 798 243 857 180 q 688 368 697 353 q 861 696 798 573 q 1014 987 977 918 "},"l":{"ha":736,"x_min":28,"x_max":732,"o":"m 732 205 q 657 192 684 195 q 460 178 526 178 l 498 1042 l 28 1042 q 60 525 51 712 q 77 0 73 159 l 690 0 q 707 103 697 59 q 732 205 725 178 "},"m":{"ha":1152,"x_min":28,"x_max":1124,"o":"m 1124 1042 l 768 1042 q 697 886 725 940 q 590 696 619 742 q 486 882 524 803 q 416 1042 437 992 l 28 1042 q 62 525 53 738 q 81 0 76 155 l 325 0 l 332 317 l 590 -25 l 829 319 l 836 0 l 1082 0 q 1096 522 1086 290 q 1124 1042 1114 899 "},"n":{"ha":889,"x_min":28,"x_max":861,"o":"m 861 1042 l 610 1042 q 618 932 616 973 q 621 803 621 885 l 368 1042 l 28 1042 q 62 519 45 829 q 87 0 82 138 l 306 0 l 313 359 q 547 195 469 250 q 818 -14 729 56 q 835 564 825 313 q 861 1042 852 905 "},"o":{"ha":961,"x_min":24,"x_max":937,"o":"m 937 543 q 805 944 937 798 q 482 1082 680 1082 q 156 945 281 1082 q 24 543 24 799 q 145 140 24 304 q 482 -35 274 -35 q 814 138 684 -35 q 937 543 937 304 m 611 424 q 574 282 611 351 q 482 207 534 207 q 392 281 429 207 q 359 422 359 347 q 484 612 359 612 q 611 424 611 612 "},"p":{"ha":924,"x_min":28,"x_max":907,"o":"m 907 631 q 736 963 907 850 q 338 1063 587 1063 q 28 1042 134 1063 q 56 505 47 701 l 75 0 l 449 0 l 457 207 q 784 322 661 207 q 907 631 907 438 m 625 517 q 463 383 625 389 l 469 621 q 500 623 485 623 q 625 517 625 623 "},"q":{"ha":961,"x_min":24,"x_max":937,"o":"m 937 546 q 805 947 937 801 q 482 1084 680 1084 q 156 948 280 1084 q 24 546 24 803 q 145 143 24 307 q 482 -32 274 -32 q 614 -4 548 -32 q 568 -62 583 -49 q 621 -144 584 -97 q 700 -222 652 -184 q 791 -171 758 -194 q 875 -97 850 -122 q 765 -25 827 -73 q 694 41 720 16 q 876 244 811 100 q 937 546 937 379 m 611 424 q 574 282 611 351 q 482 207 534 207 q 393 281 429 207 q 359 422 363 345 q 386 556 357 507 q 486 612 419 612 q 611 424 611 612 "},"r":{"ha":950,"x_min":28,"x_max":939,"o":"m 939 652 q 368 1061 939 1061 q 28 1042 214 1061 q 56 488 50 688 q 77 0 69 148 l 458 0 l 465 237 l 467 237 q 558 64 527 115 q 646 -62 626 -38 q 789 5 713 -29 q 929 64 897 52 q 811 182 850 137 q 714 310 734 279 q 869 431 807 347 q 939 652 939 527 m 631 505 q 572 408 631 441 q 472 383 528 383 l 476 615 q 576 597 536 618 q 631 505 631 570 "},"s":{"ha":699,"x_min":22,"x_max":673,"o":"m 673 615 l 653 1040 q 428 1069 528 1069 q 144 996 251 1069 q 22 749 22 912 q 151 478 22 592 q 284 361 218 419 q 325 261 325 317 q 224 184 325 184 q 123 203 198 184 q 150 102 140 140 q 171 0 165 31 q 335 -16 224 -16 q 538 54 456 -16 q 624 240 624 127 q 566 411 624 318 q 507 536 507 504 q 539 605 507 578 q 597 627 566 627 q 673 615 623 627 "},"t":{"ha":868,"x_min":12,"x_max":856,"o":"m 856 1042 l 12 1042 l 29 615 l 126 625 l 233 629 q 248 431 241 532 q 268 0 262 137 l 596 0 q 621 436 613 288 q 635 629 631 589 q 751 625 715 627 q 836 615 810 619 l 856 1042 "},"u":{"ha":974,"x_min":22,"x_max":946,"o":"m 946 1042 l 611 1042 q 636 618 629 770 q 644 174 644 313 q 591 160 615 160 q 480 218 508 160 q 453 431 454 273 q 452 750 450 637 q 460 1042 456 952 l 22 1042 q 47 631 27 856 q 92 296 68 387 q 231 61 133 136 q 570 -28 347 -28 q 924 35 750 -28 q 930 603 924 415 l 946 1042 "},"v":{"ha":908,"x_min":7,"x_max":901,"o":"m 901 1042 l 665 1042 q 627 833 644 913 q 571 619 590 685 q 518 832 535 755 q 486 1042 493 977 l 7 1042 q 186 505 125 699 q 338 0 292 155 l 574 0 q 721 497 664 319 q 901 1042 845 875 "},"w":{"ha":1432,"x_min":7,"x_max":1425,"o":"m 1425 1042 l 1189 1042 q 1145 832 1164 911 l 1075 555 q 1025 831 1043 734 q 989 1042 1000 977 l 568 1042 q 650 751 618 870 q 591 555 611 612 l 519 827 q 469 1042 484 975 l 7 1042 q 189 507 127 701 q 338 0 294 155 l 578 0 q 728 486 672 309 q 850 0 816 142 l 1093 0 q 1239 492 1184 314 q 1425 1042 1365 874 "},"x":{"ha":1019,"x_min":7,"x_max":1013,"o":"m 1013 1042 l 660 1042 q 610 928 631 972 q 555 828 572 857 q 511 930 529 883 q 473 1042 482 1013 l 7 1042 q 199 688 90 882 q 343 441 298 515 q 236 256 283 337 q 78 0 114 54 l 355 0 q 489 212 405 83 l 618 0 l 933 0 l 686 481 q 875 793 812 684 q 1013 1042 985 990 "},"y":{"ha":975,"x_min":7,"x_max":966,"o":"m 966 1042 l 724 1042 q 685 904 700 952 q 615 720 641 782 l 550 903 q 507 1042 519 998 l 7 1042 q 163 770 109 869 q 281 534 245 607 q 306 269 300 339 q 318 0 315 84 l 665 0 q 679 265 675 172 q 700 534 692 439 q 839 806 787 709 l 966 1042 "},"z":{"ha":875,"x_min":20,"x_max":861,"o":"m 861 1042 l 20 1042 l 35 615 q 172 632 122 629 q 265 637 241 636 l 82 0 l 694 0 q 730 129 717 86 q 765 235 755 204 q 681 216 711 220 q 488 207 549 203 l 861 1042 "},"{":{"ha":583,"x_min":28,"x_max":542,"o":"m 542 -168 l 542 102 q 488 90 519 90 q 430 127 446 90 q 414 227 419 153 q 384 397 406 341 q 267 517 351 479 q 384 641 351 555 q 414 814 406 697 q 430 914 419 888 q 488 951 446 951 q 542 940 519 951 l 542 1203 q 478 1207 513 1207 q 203 1048 267 1207 q 165 888 176 983 q 154 734 165 887 q 28 614 145 614 l 28 418 q 45 420 30 420 q 155 300 147 420 q 167 146 167 147 q 204 -14 178 52 q 475 -172 269 -172 q 542 -168 503 -172 "},"|":{"ha":285,"x_min":36,"x_max":249,"o":"m 249 1203 l 36 1203 l 69 -165 l 216 -165 l 249 1203 "},"}":{"ha":583,"x_min":41,"x_max":555,"o":"m 555 418 l 555 614 q 429 734 438 614 q 418 888 424 811 q 380 1048 408 983 q 103 1207 316 1207 q 41 1203 69 1207 l 41 940 q 96 951 64 951 q 153 915 138 951 q 170 815 165 888 q 199 642 177 699 q 317 519 233 557 q 199 398 233 481 q 170 228 177 342 q 153 127 164 153 q 96 90 138 90 q 41 102 64 90 l 41 -168 q 107 -172 71 -173 q 379 -14 316 -170 q 416 146 406 52 q 428 300 417 147 q 538 420 437 420 q 555 418 553 420 "},"~":{"ha":868,"x_min":90,"x_max":778,"o":"m 778 522 l 664 603 q 581 546 632 543 q 451 578 578 546 q 278 611 325 611 q 90 486 173 611 l 204 407 q 289 463 238 463 q 417 431 296 463 q 591 400 538 400 q 778 522 696 400 "},"Ä":{"ha":854,"x_min":-11,"x_max":857,"o":"m 857 0 q 728 546 774 342 q 624 1042 643 935 l 216 1042 q 123 553 179 810 q -11 0 33 168 l 186 0 l 222 131 q 256 62 244 87 l 294 -20 q 383 49 343 23 q 461 90 446 84 l 486 0 l 857 0 m 429 222 q 335 201 378 208 q 243 193 263 193 q 286 334 268 282 q 335 463 319 423 q 389 339 371 384 q 429 222 418 258 m 659 1204 q 629 1275 659 1246 q 557 1304 600 1304 q 487 1275 515 1304 q 458 1204 458 1246 q 487 1133 458 1162 q 556 1104 515 1104 q 629 1133 599 1104 q 659 1204 659 1162 m 387 1204 q 357 1275 387 1246 q 285 1304 328 1304 q 215 1275 243 1304 q 186 1204 186 1246 q 215 1133 186 1162 q 283 1104 243 1104 q 357 1133 327 1104 q 387 1204 387 1162 "},"Å":{"ha":854,"x_min":-11,"x_max":857,"o":"m 857 0 q 728 546 774 342 q 624 1042 643 935 l 216 1042 q 123 553 179 810 q -11 0 33 168 l 186 0 l 222 131 q 256 62 244 87 l 294 -20 q 383 49 343 23 q 461 90 446 84 l 486 0 l 857 0 m 429 222 q 335 201 378 208 q 243 193 263 193 q 286 334 268 282 q 335 463 319 423 q 389 339 371 384 q 429 222 418 258 m 600 1270 q 551 1388 600 1339 q 432 1437 501 1437 q 311 1388 361 1437 q 261 1270 261 1339 q 312 1151 261 1200 q 432 1101 362 1101 q 551 1151 501 1101 q 600 1270 600 1200 m 488 1270 q 471 1230 488 1248 q 432 1211 454 1211 q 391 1229 408 1211 q 374 1270 374 1247 q 391 1310 374 1291 q 432 1328 408 1328 q 471 1309 454 1328 q 488 1270 488 1291 "},"Ç":{"ha":825,"x_min":24,"x_max":794,"o":"m 794 615 l 772 1040 q 586 1055 715 1055 q 166 902 318 1055 q 24 525 24 758 q 189 115 24 273 q 557 -29 342 -29 q 751 0 675 -29 q 770 103 760 54 q 793 205 786 178 q 665 172 732 172 q 506 232 567 172 q 446 386 446 292 q 522 570 446 506 q 699 627 590 627 q 794 615 757 627 m 651 -81 l 494 12 q 469 -110 494 -57 q 405 -203 420 -191 q 454 -243 439 -231 q 494 -282 479 -267 q 600 -193 562 -248 q 651 -81 642 -113 "},"É":{"ha":771,"x_min":28,"x_max":741,"o":"m 741 1042 l 28 1042 q 54 532 49 714 l 74 0 l 681 0 q 704 104 694 63 q 729 205 724 184 q 644 189 670 191 q 457 180 508 181 l 464 332 q 572 330 536 332 q 671 318 651 323 q 688 414 678 372 q 711 507 704 482 q 468 504 543 502 l 478 633 q 603 627 546 632 q 711 612 686 616 l 741 1042 m 598 1238 q 546 1314 564 1286 l 490 1398 q 362 1287 413 1320 q 227 1204 268 1228 q 257 1149 245 1169 l 285 1104 q 444 1154 382 1126 q 598 1238 553 1210 "},"Ñ":{"ha":889,"x_min":28,"x_max":861,"o":"m 861 1042 l 610 1042 q 618 932 616 973 q 621 803 621 885 l 368 1042 l 28 1042 q 62 519 45 829 q 87 0 82 138 l 306 0 l 313 359 q 547 195 469 250 q 818 -14 729 56 q 835 564 825 313 q 861 1042 852 905 m 703 1271 l 600 1324 q 549 1272 584 1272 q 464 1299 525 1272 q 342 1326 403 1326 q 233 1274 284 1326 q 167 1158 186 1226 l 279 1111 q 335 1158 294 1158 q 438 1133 374 1158 q 542 1108 502 1108 q 703 1271 655 1108 "},"Ö":{"ha":961,"x_min":24,"x_max":937,"o":"m 937 543 q 805 944 937 798 q 482 1082 680 1082 q 156 945 281 1082 q 24 543 24 799 q 145 140 24 304 q 482 -35 274 -35 q 814 138 684 -35 q 937 543 937 304 m 611 424 q 574 282 611 351 q 482 207 534 207 q 392 281 429 207 q 359 422 359 347 q 484 612 359 612 q 611 424 611 612 m 714 1211 q 685 1282 714 1253 q 613 1311 655 1311 q 543 1282 571 1311 q 514 1211 514 1253 q 543 1140 514 1169 q 612 1111 571 1111 q 684 1140 654 1111 q 714 1211 714 1168 m 442 1211 q 413 1282 442 1253 q 340 1311 383 1311 q 271 1282 299 1311 q 242 1211 242 1253 q 270 1140 242 1169 q 339 1111 298 1111 q 412 1140 382 1111 q 442 1211 442 1168 "},"Ü":{"ha":974,"x_min":22,"x_max":946,"o":"m 946 1042 l 611 1042 q 636 618 629 770 q 644 174 644 313 q 591 160 615 160 q 480 218 508 160 q 453 431 454 273 q 452 750 450 637 q 460 1042 456 952 l 22 1042 q 47 631 27 856 q 92 296 68 387 q 231 61 133 136 q 570 -28 347 -28 q 924 35 750 -28 q 930 603 924 415 l 946 1042 m 755 1203 q 726 1274 755 1244 q 654 1303 696 1303 q 584 1274 612 1303 q 555 1203 555 1244 q 584 1132 555 1161 q 653 1103 612 1103 q 726 1132 696 1103 q 755 1203 755 1160 m 484 1203 q 454 1274 484 1244 q 382 1303 425 1303 q 312 1274 340 1303 q 283 1203 283 1244 q 312 1132 283 1161 q 380 1103 340 1103 q 454 1132 424 1103 q 484 1203 484 1160 "},"á":{"ha":854,"x_min":-11,"x_max":857,"o":"m 857 0 q 728 546 774 342 q 624 1042 643 935 l 216 1042 q 123 553 179 810 q -11 0 33 168 l 186 0 l 222 131 q 256 62 244 87 l 294 -20 q 383 49 343 23 q 461 90 446 84 l 486 0 l 857 0 m 429 222 q 335 201 378 208 q 243 193 263 193 q 286 334 268 282 q 335 463 319 423 q 389 339 371 384 q 429 222 418 258 m 611 1236 q 559 1311 576 1284 l 503 1396 q 375 1284 426 1318 q 239 1201 281 1225 q 270 1147 258 1166 l 298 1101 q 457 1152 395 1124 q 611 1236 566 1207 "},"à":{"ha":854,"x_min":-11,"x_max":857,"o":"m 857 0 q 728 546 774 342 q 624 1042 643 935 l 216 1042 q 123 553 179 810 q -11 0 33 168 l 186 0 l 222 131 q 256 62 244 87 l 294 -20 q 383 49 343 23 q 461 90 446 84 l 486 0 l 857 0 m 429 222 q 335 201 378 208 q 243 193 263 193 q 286 334 268 282 q 335 463 319 423 q 389 339 371 384 q 429 222 418 258 m 624 1205 q 488 1289 536 1256 q 360 1400 397 1362 q 304 1315 325 1346 q 252 1240 269 1263 q 407 1156 347 1181 q 567 1105 522 1115 q 595 1151 585 1136 l 624 1205 "},"â":{"ha":854,"x_min":-11,"x_max":857,"o":"m 857 0 q 728 546 774 342 q 624 1042 643 935 l 216 1042 q 123 553 179 810 q -11 0 33 168 l 186 0 l 222 131 q 256 62 244 87 l 294 -20 q 383 49 343 23 q 461 90 446 84 l 486 0 l 857 0 m 429 222 q 335 201 378 208 q 243 193 263 193 q 286 334 268 282 q 335 463 319 423 q 389 339 371 384 q 429 222 418 258 m 696 1237 q 557 1298 610 1270 q 431 1376 469 1350 q 306 1298 355 1324 q 167 1237 208 1253 l 217 1105 q 332 1156 284 1133 q 431 1209 401 1192 q 536 1156 500 1172 l 646 1105 l 696 1237 "},"ä":{"ha":854,"x_min":-11,"x_max":857,"o":"m 857 0 q 728 546 774 342 q 624 1042 643 935 l 216 1042 q 123 553 179 810 q -11 0 33 168 l 186 0 l 222 131 q 256 62 244 87 l 294 -20 q 383 49 343 23 q 461 90 446 84 l 486 0 l 857 0 m 429 222 q 335 201 378 208 q 243 193 263 193 q 286 334 268 282 q 335 463 319 423 q 389 339 371 384 q 429 222 418 258 m 659 1204 q 629 1275 659 1246 q 557 1304 600 1304 q 487 1275 515 1304 q 458 1204 458 1246 q 487 1133 458 1162 q 556 1104 515 1104 q 629 1133 599 1104 q 659 1204 659 1162 m 387 1204 q 357 1275 387 1246 q 285 1304 328 1304 q 215 1275 243 1304 q 186 1204 186 1246 q 215 1133 186 1162 q 283 1104 243 1104 q 357 1133 327 1104 q 387 1204 387 1162 "},"ã":{"ha":854,"x_min":-11,"x_max":857,"o":"m 857 0 q 728 546 774 342 q 624 1042 643 935 l 216 1042 q 123 553 179 810 q -11 0 33 168 l 186 0 l 222 131 q 256 62 244 87 l 294 -20 q 383 49 343 23 q 461 90 446 84 l 486 0 l 857 0 m 429 222 q 335 201 378 208 q 243 193 263 193 q 286 334 268 282 q 335 463 319 423 q 389 339 371 384 q 429 222 418 258 m 696 1271 l 593 1324 q 542 1272 577 1272 q 457 1299 518 1272 q 335 1326 396 1326 q 227 1274 277 1326 q 160 1158 180 1226 l 273 1111 q 328 1158 287 1158 q 431 1133 367 1158 q 535 1108 495 1108 q 696 1271 648 1108 "},"å":{"ha":854,"x_min":-11,"x_max":857,"o":"m 857 0 q 728 546 774 342 q 624 1042 643 935 l 216 1042 q 123 553 179 810 q -11 0 33 168 l 186 0 l 222 131 q 256 62 244 87 l 294 -20 q 383 49 343 23 q 461 90 446 84 l 486 0 l 857 0 m 429 222 q 335 201 378 208 q 243 193 263 193 q 286 334 268 282 q 335 463 319 423 q 389 339 371 384 q 429 222 418 258 m 600 1270 q 551 1388 600 1339 q 432 1437 501 1437 q 311 1388 361 1437 q 261 1270 261 1339 q 312 1151 261 1200 q 432 1101 362 1101 q 551 1151 501 1101 q 600 1270 600 1200 m 488 1270 q 471 1230 488 1248 q 432 1211 454 1211 q 391 1229 408 1211 q 374 1270 374 1247 q 391 1310 374 1291 q 432 1328 408 1328 q 471 1309 454 1328 q 488 1270 488 1291 "},"ç":{"ha":825,"x_min":24,"x_max":794,"o":"m 794 615 l 772 1040 q 586 1055 715 1055 q 166 902 318 1055 q 24 525 24 758 q 189 115 24 273 q 557 -29 342 -29 q 751 0 675 -29 q 770 103 760 54 q 793 205 786 178 q 665 172 732 172 q 506 232 567 172 q 446 386 446 292 q 522 570 446 506 q 699 627 590 627 q 794 615 757 627 m 651 -81 l 494 12 q 469 -110 494 -57 q 405 -203 420 -191 q 454 -243 439 -231 q 494 -282 479 -267 q 600 -193 562 -248 q 651 -81 642 -113 "},"é":{"ha":771,"x_min":28,"x_max":741,"o":"m 741 1042 l 28 1042 q 54 532 49 714 l 74 0 l 681 0 q 704 104 694 63 q 729 205 724 184 q 644 189 670 191 q 457 180 508 181 l 464 332 q 572 330 536 332 q 671 318 651 323 q 688 414 678 372 q 711 507 704 482 q 468 504 543 502 l 478 633 q 603 627 546 632 q 711 612 686 616 l 741 1042 m 598 1238 q 546 1314 564 1286 l 490 1398 q 362 1287 413 1320 q 227 1204 268 1228 q 257 1149 245 1169 l 285 1104 q 444 1154 382 1126 q 598 1238 553 1210 "},"è":{"ha":771,"x_min":28,"x_max":741,"o":"m 741 1042 l 28 1042 q 54 532 49 714 l 74 0 l 681 0 q 704 104 694 63 q 729 205 724 184 q 644 189 670 191 q 457 180 508 181 l 464 332 q 572 330 536 332 q 671 318 651 323 q 688 414 678 372 q 711 507 704 482 q 468 504 543 502 l 478 633 q 603 627 546 632 q 711 612 686 616 l 741 1042 m 585 1201 q 448 1284 497 1252 q 321 1396 358 1358 q 265 1311 286 1342 q 212 1236 229 1259 q 368 1152 307 1177 q 528 1101 483 1111 q 555 1147 545 1132 l 585 1201 "},"ê":{"ha":771,"x_min":28,"x_max":741,"o":"m 741 1042 l 28 1042 q 54 532 49 714 l 74 0 l 681 0 q 704 104 694 63 q 729 205 724 184 q 644 189 670 191 q 457 180 508 181 l 464 332 q 572 330 536 332 q 671 318 651 323 q 688 414 678 372 q 711 507 704 482 q 468 504 543 502 l 478 633 q 603 627 546 632 q 711 612 686 616 l 741 1042 m 663 1236 q 524 1297 576 1269 q 397 1375 435 1349 q 273 1297 321 1322 q 134 1236 175 1252 l 184 1104 q 299 1154 251 1132 q 397 1208 368 1191 q 503 1154 467 1171 l 612 1104 l 663 1236 "},"ë":{"ha":771,"x_min":28,"x_max":741,"o":"m 741 1042 l 28 1042 q 54 532 49 714 l 74 0 l 681 0 q 704 104 694 63 q 729 205 724 184 q 644 189 670 191 q 457 180 508 181 l 464 332 q 572 330 536 332 q 671 318 651 323 q 688 414 678 372 q 711 507 704 482 q 468 504 543 502 l 478 633 q 603 627 546 632 q 711 612 686 616 l 741 1042 m 629 1200 q 600 1271 629 1242 q 528 1300 570 1300 q 458 1271 486 1300 q 429 1200 429 1242 q 458 1129 429 1158 q 527 1100 486 1100 q 600 1129 570 1100 q 629 1200 629 1158 m 357 1200 q 328 1271 357 1242 q 256 1300 298 1300 q 186 1271 214 1300 q 157 1200 157 1242 q 185 1129 157 1158 q 254 1100 214 1100 q 328 1129 298 1100 q 357 1200 357 1158 "},"í":{"ha":526,"x_min":28,"x_max":498,"o":"m 498 1042 l 28 1042 l 74 0 l 454 0 q 472 488 465 309 l 498 1042 m 456 1237 q 404 1312 422 1285 l 349 1397 q 220 1286 271 1319 q 85 1202 126 1227 q 115 1148 104 1168 l 143 1103 q 302 1153 241 1125 q 456 1237 411 1208 "},"ì":{"ha":526,"x_min":28,"x_max":498,"o":"m 498 1042 l 28 1042 l 74 0 l 454 0 q 472 488 465 309 l 498 1042 m 454 1205 q 318 1289 367 1256 q 191 1400 228 1362 q 135 1315 155 1346 q 82 1240 99 1263 q 237 1156 177 1181 q 397 1105 353 1115 q 425 1151 415 1136 l 454 1205 "},"î":{"ha":526,"x_min":28,"x_max":557,"o":"m 498 1042 l 28 1042 l 74 0 l 454 0 q 472 488 465 309 l 498 1042 m 557 1240 q 418 1301 471 1273 q 292 1379 330 1353 q 167 1301 216 1326 q 28 1240 69 1256 l 78 1108 q 193 1158 145 1136 q 292 1212 262 1195 q 397 1158 361 1175 l 507 1108 l 557 1240 "},"ï":{"ha":526,"x_min":28,"x_max":504,"o":"m 498 1042 l 28 1042 l 74 0 l 454 0 q 472 488 465 309 l 498 1042 m 504 1203 q 474 1274 504 1244 q 403 1303 445 1303 q 332 1274 361 1303 q 304 1203 304 1244 q 332 1132 304 1161 q 401 1103 361 1103 q 474 1132 444 1103 q 504 1203 504 1160 m 232 1203 q 202 1274 232 1244 q 130 1303 173 1303 q 60 1274 89 1303 q 32 1203 32 1244 q 60 1132 32 1161 q 129 1103 88 1103 q 202 1132 172 1103 q 232 1203 232 1160 "},"ñ":{"ha":889,"x_min":28,"x_max":861,"o":"m 861 1042 l 610 1042 q 618 932 616 973 q 621 803 621 885 l 368 1042 l 28 1042 q 62 519 45 829 q 87 0 82 138 l 306 0 l 313 359 q 547 195 469 250 q 818 -14 729 56 q 835 564 825 313 q 861 1042 852 905 m 703 1271 l 600 1324 q 549 1272 584 1272 q 464 1299 525 1272 q 342 1326 403 1326 q 233 1274 284 1326 q 167 1158 186 1226 l 279 1111 q 335 1158 294 1158 q 438 1133 374 1158 q 542 1108 502 1108 q 703 1271 655 1108 "},"ó":{"ha":961,"x_min":24,"x_max":937,"o":"m 937 543 q 805 944 937 798 q 482 1082 680 1082 q 156 945 281 1082 q 24 543 24 799 q 145 140 24 304 q 482 -35 274 -35 q 814 138 684 -35 q 937 543 937 304 m 611 424 q 574 282 611 351 q 482 207 534 207 q 392 281 429 207 q 359 422 359 347 q 484 612 359 612 q 611 424 611 612 m 659 1242 q 607 1318 625 1291 l 551 1402 q 423 1291 474 1324 q 288 1208 329 1232 q 318 1154 307 1173 l 346 1108 q 505 1158 444 1131 q 659 1242 614 1214 "},"ò":{"ha":961,"x_min":24,"x_max":937,"o":"m 937 543 q 805 944 937 798 q 482 1082 680 1082 q 156 945 281 1082 q 24 543 24 799 q 145 140 24 304 q 482 -35 274 -35 q 814 138 684 -35 q 937 543 937 304 m 611 424 q 574 282 611 351 q 482 207 534 207 q 392 281 429 207 q 359 422 359 347 q 484 612 359 612 q 611 424 611 612 m 660 1208 q 524 1291 572 1259 q 396 1402 433 1364 q 340 1318 361 1349 q 288 1242 304 1265 q 443 1158 382 1184 q 603 1108 558 1118 q 631 1154 621 1139 l 660 1208 "},"ô":{"ha":961,"x_min":24,"x_max":937,"o":"m 937 543 q 805 944 937 798 q 482 1082 680 1082 q 156 945 281 1082 q 24 543 24 799 q 145 140 24 304 q 482 -35 274 -35 q 814 138 684 -35 q 937 543 937 304 m 611 424 q 574 282 611 351 q 482 207 534 207 q 392 281 429 207 q 359 422 359 347 q 484 612 359 612 q 611 424 611 612 m 746 1237 q 607 1298 660 1270 q 481 1376 519 1350 q 356 1298 405 1324 q 217 1237 258 1253 l 267 1105 q 382 1156 334 1133 q 481 1209 452 1192 q 587 1156 550 1172 l 696 1105 l 746 1237 "},"ö":{"ha":961,"x_min":24,"x_max":937,"o":"m 937 543 q 805 944 937 798 q 482 1082 680 1082 q 156 945 281 1082 q 24 543 24 799 q 145 140 24 304 q 482 -35 274 -35 q 814 138 684 -35 q 937 543 937 304 m 611 424 q 574 282 611 351 q 482 207 534 207 q 392 281 429 207 q 359 422 359 347 q 484 612 359 612 q 611 424 611 612 m 714 1211 q 685 1282 714 1253 q 613 1311 655 1311 q 543 1282 571 1311 q 514 1211 514 1253 q 543 1140 514 1169 q 612 1111 571 1111 q 684 1140 654 1111 q 714 1211 714 1168 m 442 1211 q 413 1282 442 1253 q 340 1311 383 1311 q 271 1282 299 1311 q 242 1211 242 1253 q 270 1140 242 1169 q 339 1111 298 1111 q 412 1140 382 1111 q 442 1211 442 1168 "},"õ":{"ha":961,"x_min":24,"x_max":937,"o":"m 937 543 q 805 944 937 798 q 482 1082 680 1082 q 156 945 281 1082 q 24 543 24 799 q 145 140 24 304 q 482 -35 274 -35 q 814 138 684 -35 q 937 543 937 304 m 611 424 q 574 282 611 351 q 482 207 534 207 q 392 281 429 207 q 359 422 359 347 q 484 612 359 612 q 611 424 611 612 m 744 1280 l 642 1333 q 590 1282 625 1282 q 505 1309 566 1282 q 383 1336 444 1336 q 275 1284 326 1336 q 208 1168 228 1236 l 321 1120 q 376 1168 335 1168 q 479 1143 415 1168 q 583 1118 543 1118 q 744 1280 696 1118 "},"ú":{"ha":974,"x_min":22,"x_max":946,"o":"m 946 1042 l 611 1042 q 636 618 629 770 q 644 174 644 313 q 591 160 615 160 q 480 218 508 160 q 453 431 454 273 q 452 750 450 637 q 460 1042 456 952 l 22 1042 q 47 631 27 856 q 92 296 68 387 q 231 61 133 136 q 570 -28 347 -28 q 924 35 750 -28 q 930 603 924 415 l 946 1042 m 753 1244 q 701 1320 718 1293 l 645 1404 q 517 1293 568 1326 q 381 1210 422 1234 q 412 1156 400 1175 l 439 1110 q 599 1160 537 1133 q 753 1244 707 1216 "},"ù":{"ha":974,"x_min":22,"x_max":946,"o":"m 946 1042 l 611 1042 q 636 618 629 770 q 644 174 644 313 q 591 160 615 160 q 480 218 508 160 q 453 431 454 273 q 452 750 450 637 q 460 1042 456 952 l 22 1042 q 47 631 27 856 q 92 296 68 387 q 231 61 133 136 q 570 -28 347 -28 q 924 35 750 -28 q 930 603 924 415 l 946 1042 m 717 1202 q 581 1286 629 1253 q 453 1397 490 1359 q 397 1312 418 1343 q 345 1237 361 1260 q 500 1153 439 1179 q 660 1103 615 1112 q 688 1148 677 1133 l 717 1202 "},"û":{"ha":974,"x_min":22,"x_max":946,"o":"m 946 1042 l 611 1042 q 636 618 629 770 q 644 174 644 313 q 591 160 615 160 q 480 218 508 160 q 453 431 454 273 q 452 750 450 637 q 460 1042 456 952 l 22 1042 q 47 631 27 856 q 92 296 68 387 q 231 61 133 136 q 570 -28 347 -28 q 924 35 750 -28 q 930 603 924 415 l 946 1042 m 772 1243 q 633 1304 686 1276 q 507 1382 545 1356 q 382 1304 431 1330 q 243 1243 285 1259 l 294 1112 q 409 1162 361 1139 q 507 1215 478 1198 q 613 1162 576 1178 l 722 1112 l 772 1243 "},"ü":{"ha":974,"x_min":22,"x_max":946,"o":"m 946 1042 l 611 1042 q 636 618 629 770 q 644 174 644 313 q 591 160 615 160 q 480 218 508 160 q 453 431 454 273 q 452 750 450 637 q 460 1042 456 952 l 22 1042 q 47 631 27 856 q 92 296 68 387 q 231 61 133 136 q 570 -28 347 -28 q 924 35 750 -28 q 930 603 924 415 l 946 1042 m 755 1203 q 726 1274 755 1244 q 654 1303 696 1303 q 584 1274 612 1303 q 555 1203 555 1244 q 584 1132 555 1161 q 653 1103 612 1103 q 726 1132 696 1103 q 755 1203 755 1160 m 484 1203 q 454 1274 484 1244 q 382 1303 425 1303 q 312 1274 340 1303 q 283 1203 283 1244 q 312 1132 283 1161 q 380 1103 340 1103 q 454 1132 424 1103 q 484 1203 484 1160 "},"†":{"ha":808,"x_min":28,"x_max":781,"o":"m 604 1040 l 203 1040 q 224 818 216 928 l 28 818 l 65 665 q 235 677 143 673 q 286 -69 275 200 q 517 -49 403 -55 q 567 678 532 418 q 745 665 669 674 l 781 818 l 580 818 q 604 1040 593 947 "},"°":{"ha":488,"x_min":69,"x_max":418,"o":"m 418 900 q 367 1023 418 972 q 243 1074 316 1074 q 120 1023 171 1074 q 69 900 69 972 q 120 778 69 827 q 243 728 171 728 q 367 778 316 728 q 418 900 418 827 m 307 899 q 289 853 307 872 q 243 833 270 833 q 199 853 217 833 q 182 900 182 873 q 200 944 182 926 q 244 961 218 961 q 289 943 271 961 q 307 899 307 926 "},"¢":{"ha":570,"x_min":33,"x_max":532,"o":"m 532 328 q 458 317 502 317 q 374 353 406 317 q 346 425 346 384 q 382 517 346 482 q 478 553 419 553 q 532 549 496 553 l 519 842 q 431 848 498 848 l 436 993 l 236 993 l 243 821 q 86 690 143 781 q 33 507 33 606 q 102 300 33 387 q 264 186 163 222 l 269 32 l 397 32 l 404 161 q 504 175 465 161 q 514 250 511 223 q 532 328 526 303 "},"£":{"ha":621,"x_min":27,"x_max":589,"o":"m 589 1029 q 376 1061 485 1061 q 134 977 235 1061 q 29 750 27 887 q 81 585 30 677 q 132 509 102 547 l 53 509 l 74 387 l 182 387 q 218 307 218 343 q 165 218 218 252 q 62 189 119 188 l 92 -1 l 518 -1 l 557 221 q 494 201 517 206 q 411 193 456 193 l 325 193 q 401 290 387 237 l 408 326 l 404 387 l 500 387 l 518 511 l 382 511 q 364 619 364 610 q 454 722 364 722 q 550 689 505 722 l 589 1029 "},"§":{"ha":656,"x_min":27,"x_max":626,"o":"m 625 390 q 565 576 626 493 q 451 686 530 623 q 392 755 391 735 q 469 807 395 810 q 554 771 526 788 l 603 1028 q 404 1068 506 1068 q 158 997 240 1068 q 87 835 89 936 q 183 625 86 722 q 105 572 138 603 q 28 412 27 501 q 90 226 28 309 q 202 117 124 180 q 261 49 262 69 q 183 -4 258 -9 q 98 33 126 16 l 50 -225 q 249 -265 146 -260 q 475 -205 381 -273 q 574 -14 574 -134 q 524 125 574 62 q 469 178 496 152 q 547 231 513 200 q 625 390 625 302 m 392 366 q 383 318 391 336 q 370 294 381 314 q 291 373 330 334 q 258 446 257 411 q 265 490 260 477 q 286 519 269 498 q 361 437 323 479 q 392 366 393 399 "},"•":{"ha":616,"x_min":61,"x_max":555,"o":"m 555 521 q 482 696 555 623 q 307 770 409 770 q 134 696 206 770 q 61 521 61 623 q 134 348 61 420 q 307 275 206 275 q 482 348 409 275 q 555 521 555 420 "},"¶":{"ha":1022,"x_min":33,"x_max":991,"o":"m 991 -75 q 893 -89 927 -88 q 909 505 905 409 l 937 1042 q 669 1063 791 1063 q 244 951 417 1063 q 33 553 33 815 q 205 224 33 342 q 596 118 359 118 q 618 -221 610 22 l 961 -220 q 991 -75 981 -117 m 590 243 q 467 485 467 248 q 571 663 467 665 l 590 243 "},"ß":{"ha":1395,"x_min":22,"x_max":1369,"o":"m 673 615 l 653 1040 q 428 1069 528 1069 q 144 996 251 1069 q 22 749 22 912 q 151 478 22 592 q 284 361 218 419 q 325 261 325 317 q 224 184 325 184 q 123 203 198 184 q 150 102 140 140 q 171 0 165 31 q 335 -16 224 -16 q 538 54 456 -16 q 624 240 624 127 q 566 411 624 318 q 507 536 507 504 q 539 605 507 578 q 597 627 566 627 q 673 615 623 627 m 1369 615 l 1349 1040 q 1124 1069 1224 1069 q 840 996 947 1069 q 718 749 718 912 q 847 478 718 592 q 980 361 913 419 q 1021 261 1021 317 q 920 184 1021 184 q 819 203 894 184 q 846 102 836 140 q 867 0 861 31 q 1031 -16 920 -16 q 1234 54 1152 -16 q 1320 240 1320 127 q 1261 411 1320 318 q 1203 536 1203 504 q 1235 605 1203 578 q 1293 627 1261 627 q 1369 615 1319 627 "},"®":{"ha":607,"x_min":28,"x_max":579,"o":"m 579 772 q 499 967 579 887 q 304 1047 418 1047 q 109 967 189 1047 q 28 772 28 886 q 109 577 28 658 q 304 496 190 496 q 499 577 418 496 q 579 772 579 658 m 549 771 q 476 599 549 670 q 302 528 404 528 q 131 599 201 528 q 60 771 60 670 q 131 944 60 872 q 302 1017 202 1017 q 476 944 404 1017 q 549 771 549 872 m 370 764 q 321 729 370 730 l 322 796 q 370 764 370 798 m 463 807 q 290 928 463 928 q 186 922 244 928 q 196 760 195 819 q 201 615 199 660 l 317 615 l 319 686 l 323 686 q 374 597 340 640 q 460 635 410 612 q 395 707 413 677 q 463 807 463 732 "},"©":{"ha":1135,"x_min":41,"x_max":1093,"o":"m 1093 526 q 940 898 1093 744 q 568 1051 786 1051 q 196 898 350 1051 q 41 526 41 744 q 196 154 41 309 q 568 0 351 0 q 939 154 785 0 q 1093 526 1093 309 m 1034 525 q 897 196 1034 332 q 567 60 760 60 q 238 196 374 60 q 102 525 102 332 q 238 854 102 718 q 567 991 374 991 q 897 854 760 991 q 1034 525 1034 718 m 781 583 l 767 839 q 652 847 721 847 q 389 755 484 847 q 300 529 300 669 q 404 284 300 378 q 633 197 499 197 q 754 214 707 197 q 766 277 760 247 q 780 338 776 321 q 701 318 742 318 q 602 354 640 318 q 564 446 564 390 q 612 556 564 517 q 722 590 654 590 q 781 583 749 590 "},"™":{"ha":1010,"x_min":41,"x_max":947,"o":"m 947 1042 l 789 1042 q 757 979 770 1001 q 710 901 722 920 q 663 978 680 945 q 632 1042 640 1022 l 460 1042 q 473 833 469 920 l 484 621 l 591 621 l 595 749 l 710 611 l 815 749 l 819 621 l 928 621 q 935 832 929 730 q 947 1042 943 984 m 418 1042 l 41 1042 l 49 869 l 93 873 l 140 875 q 147 794 144 836 q 155 621 153 675 l 301 621 l 313 798 q 319 875 317 859 q 371 873 353 875 l 410 869 l 418 1042 "},"´":{"ha":868,"x_min":249,"x_max":621,"o":"m 621 1229 q 568 1304 586 1277 l 513 1389 q 385 1278 435 1311 q 249 1194 290 1219 q 279 1140 268 1160 l 307 1095 q 467 1145 405 1117 q 621 1229 575 1200 "},"¨":{"ha":868,"x_min":197,"x_max":669,"o":"m 669 1211 q 640 1282 669 1253 q 568 1311 610 1311 q 498 1282 526 1311 q 469 1211 469 1253 q 498 1140 469 1169 q 567 1111 526 1111 q 640 1140 610 1111 q 669 1211 669 1168 m 397 1211 q 368 1282 397 1253 q 296 1311 338 1311 q 226 1282 254 1311 q 197 1211 197 1253 q 225 1140 197 1169 q 294 1111 254 1111 q 368 1140 338 1111 q 397 1211 397 1168 "},"≠":{"ha":612,"x_min":69,"x_max":543,"o":"m 543 265 l 543 346 l 328 346 l 369 513 l 543 513 l 543 595 l 389 595 l 438 792 l 359 812 l 305 595 l 69 595 l 69 513 l 285 513 l 243 346 l 69 346 l 69 265 l 223 265 l 174 66 l 254 47 l 308 265 l 543 265 "},"Æ":{"ha":1117,"x_min":-29,"x_max":1086,"o":"m 1086 1042 l 374 1042 q 175 511 235 667 q -29 0 33 151 l 168 0 l 204 131 q 237 62 227 87 q 277 -20 264 4 q 354 49 314 23 q 412 82 395 73 l 419 0 l 1026 0 q 1050 104 1040 63 q 1075 205 1069 184 q 990 189 1066 197 q 807 180 857 180 l 814 332 q 918 330 882 332 q 1017 318 997 323 q 1034 414 1023 372 q 1057 507 1050 482 q 818 504 892 499 l 828 627 q 949 624 896 627 q 1057 612 1031 616 l 1086 1042 m 411 222 q 317 201 357 204 q 231 193 248 195 q 282 330 264 279 q 392 579 346 480 l 404 372 q 411 222 410 269 "},"Ø":{"ha":961,"x_min":24,"x_max":937,"o":"m 937 543 q 805 944 937 798 q 482 1082 680 1082 q 156 945 281 1082 q 24 543 24 799 q 145 140 24 304 q 482 -35 274 -35 q 814 138 684 -35 q 937 543 937 304 m 611 424 q 574 282 611 351 q 482 207 534 207 q 392 281 429 207 q 359 422 359 347 q 484 612 359 612 q 611 424 611 612 m 916 1053 l 823 1103 l 154 -75 l 235 -122 l 916 1053 "},"∞":{"ha":861,"x_min":24,"x_max":838,"o":"m 838 171 l 838 515 q 762 592 838 592 l 591 592 q 498 515 548 592 l 432 413 l 366 515 q 273 592 317 591 l 101 592 q 24 515 24 592 l 24 171 q 101 94 24 94 l 273 94 q 321 113 302 95 q 364 170 336 125 l 431 273 l 498 171 q 591 94 548 94 l 762 94 q 838 171 838 94 m 747 174 l 587 174 l 477 344 l 586 513 l 747 513 l 747 174 m 386 342 l 277 174 l 115 174 l 115 513 l 274 513 l 386 342 "},"±":{"ha":568,"x_min":46,"x_max":524,"o":"m 521 441 l 521 518 l 325 518 l 325 697 l 244 697 l 244 518 l 47 518 l 47 441 l 244 441 l 244 269 l 325 269 l 325 441 l 521 441 m 524 129 l 524 212 l 46 212 l 46 129 l 524 129 "},"≤":{"ha":473,"x_min":52,"x_max":396,"o":"m 396 205 l 396 299 l 144 465 l 396 631 l 396 725 l 52 488 l 52 439 l 392 205 l 396 205 m 396 98 l 396 179 l 52 179 l 52 98 l 396 98 "},"≥":{"ha":473,"x_min":65,"x_max":410,"o":"m 410 439 l 410 488 l 69 725 l 65 725 l 65 631 l 316 465 l 65 299 l 65 205 l 410 439 m 409 98 l 409 179 l 65 179 l 65 98 l 409 98 "},"¥":{"ha":975,"x_min":7,"x_max":968,"o":"m 968 1042 l 721 1042 q 686 904 701 952 q 619 720 644 782 q 554 903 576 842 q 507 1042 521 998 l 7 1042 q 163 770 109 869 q 281 534 245 607 l 281 533 l 119 533 l 142 410 l 293 410 q 301 322 301 322 l 125 322 l 147 199 l 310 199 q 318 0 317 53 l 665 0 l 675 200 l 828 200 l 846 322 l 682 322 q 689 411 687 376 l 822 411 l 840 533 l 700 533 l 700 534 q 836 806 785 709 q 968 1042 926 969 "},"µ":{"ha":532,"x_min":74,"x_max":458,"o":"m 458 0 l 458 660 l 369 660 l 369 88 q 256 77 321 77 q 163 172 163 77 l 163 660 l 74 660 l 74 -250 l 163 -250 l 163 26 q 245 -1 181 -1 q 370 19 323 -1 l 370 0 l 458 0 "},"∂":{"ha":589,"x_min":84,"x_max":505,"o":"m 505 583 l 282 1061 l 180 1061 l 401 585 l 159 585 q 105 564 126 585 q 84 510 84 543 l 84 75 q 105 21 84 42 q 159 0 126 0 l 430 0 q 484 21 463 0 q 505 75 505 42 l 505 583 m 410 83 l 178 83 l 178 503 l 410 503 l 410 83 "},"∑":{"ha":496,"x_min":58,"x_max":440,"o":"m 440 0 l 440 83 l 152 83 l 393 499 l 393 580 l 151 978 l 436 978 l 436 1061 l 58 1061 l 58 977 l 317 540 l 58 73 l 58 0 l 440 0 "},"∏":{"ha":545,"x_min":26,"x_max":518,"o":"m 518 978 l 518 1061 l 26 1061 l 26 978 l 124 978 l 124 0 l 216 0 l 216 978 l 326 978 l 326 0 l 418 0 l 418 978 l 518 978 "},"π":{"ha":545,"x_min":26,"x_max":518,"o":"m 518 522 l 518 606 l 26 606 l 26 522 l 124 522 l 124 0 l 216 0 l 216 522 l 326 522 l 326 0 l 418 0 l 418 522 l 518 522 "},"∫":{"ha":330,"x_min":-22,"x_max":323,"o":"m 323 982 l 323 1061 l 183 1061 q 107 985 107 1061 l 106 -193 l -22 -193 l -22 -272 l 123 -271 q 178 -247 158 -271 q 196 -196 196 -226 l 196 982 l 323 982 "},"ª":{"ha":485,"x_min":41,"x_max":443,"o":"m 443 582 q 382 825 410 711 q 335 1040 348 971 l 147 1040 q 106 836 141 985 q 41 582 73 696 l 134 582 l 150 640 q 183 574 172 599 q 260 623 232 610 l 271 582 l 443 582 m 244 681 q 160 667 184 665 q 200 786 180 736 l 203 786 q 244 681 229 730 "},"º":{"ha":505,"x_min":41,"x_max":464,"o":"m 464 821 q 403 998 464 932 q 253 1059 345 1059 q 102 998 159 1059 q 41 821 41 934 q 97 643 41 715 q 253 567 157 567 q 406 643 346 567 q 464 821 464 715 m 313 768 q 296 705 313 736 q 253 672 277 672 q 212 705 229 672 q 197 768 197 734 q 254 851 197 851 q 313 768 313 851 "},"Ω":{"ha":716,"x_min":40,"x_max":678,"o":"m 678 -1 l 678 87 l 494 87 l 494 248 l 559 248 q 613 269 592 248 q 634 323 634 290 l 634 986 q 612 1040 634 1019 q 557 1061 590 1061 l 160 1061 q 106 1040 127 1061 q 85 986 85 1019 l 85 323 q 106 269 85 290 q 160 248 127 248 l 224 248 l 224 87 l 40 87 l 40 -1 l 304 -1 l 304 332 l 179 332 l 180 977 l 540 978 l 540 332 l 415 332 l 415 -1 l 678 -1 "},"æ":{"ha":1117,"x_min":-29,"x_max":1086,"o":"m 1086 1042 l 374 1042 q 175 511 235 667 q -29 0 33 151 l 168 0 l 204 131 q 237 62 227 87 q 277 -20 264 4 q 354 49 314 23 q 412 82 395 73 l 419 0 l 1026 0 q 1050 104 1040 63 q 1075 205 1069 184 q 990 189 1066 197 q 807 180 857 180 l 814 332 q 918 330 882 332 q 1017 318 997 323 q 1034 414 1023 372 q 1057 507 1050 482 q 818 504 892 499 l 828 627 q 949 624 896 627 q 1057 612 1031 616 l 1086 1042 m 411 222 q 317 201 357 204 q 231 193 248 195 q 282 330 264 279 q 392 579 346 480 l 404 372 q 411 222 410 269 "},"ø":{"ha":961,"x_min":24,"x_max":937,"o":"m 937 543 q 805 944 937 798 q 482 1082 680 1082 q 156 945 281 1082 q 24 543 24 799 q 145 140 24 304 q 482 -35 274 -35 q 814 138 684 -35 q 937 543 937 304 m 611 424 q 574 282 611 351 q 482 207 534 207 q 392 281 429 207 q 359 422 359 347 q 484 612 359 612 q 611 424 611 612 m 916 1053 l 823 1103 l 154 -75 l 235 -122 l 916 1053 "},"¿":{"ha":686,"x_min":56,"x_max":637,"o":"m 561 930 q 515 1021 561 985 q 404 1057 469 1057 q 300 1022 345 1057 q 254 932 254 985 q 299 842 254 878 q 404 806 344 806 q 516 841 471 806 q 561 930 561 876 m 637 353 q 532 323 583 323 q 468 348 494 323 q 441 411 441 373 q 484 532 441 452 q 526 675 526 611 q 509 761 526 719 q 415 733 479 747 q 326 720 361 724 q 340 667 340 699 q 240 536 340 635 q 120 410 144 441 q 56 243 56 325 q 418 -35 56 -35 q 616 -4 525 -35 l 637 353 "},"¡":{"ha":603,"x_min":90,"x_max":513,"o":"m 471 936 q 425 1026 471 990 q 315 1063 379 1063 q 211 1026 256 1063 q 165 937 165 990 q 211 846 165 882 q 315 811 254 811 q 426 846 382 811 q 471 936 471 881 m 513 0 q 440 374 464 259 q 383 736 399 625 q 300 724 339 728 q 228 715 231 716 q 229 698 229 709 q 208 555 229 660 q 168 367 188 460 q 90 0 128 161 l 513 0 "},"¬":{"ha":639,"x_min":81,"x_max":558,"o":"m 558 225 l 558 507 l 81 507 l 81 423 l 474 423 l 474 225 l 558 225 "},"√":{"ha":844,"x_min":11,"x_max":803,"o":"m 803 1000 l 612 1090 l 370 267 l 155 496 l 11 220 l 343 -14 l 433 24 l 803 1000 "},"ƒ":{"ha":760,"x_min":17,"x_max":734,"o":"m 734 1040 q 515 1069 616 1069 q 222 998 334 1069 q 92 749 91 914 q 115 567 92 646 l 28 567 l 43 425 l 172 425 q 248 117 248 222 q 239 29 248 72 q 126 -60 220 -60 q 17 -40 100 -60 q 31 -147 27 -109 q 40 -244 38 -220 q 215 -258 104 -258 q 413 -181 330 -258 q 518 12 492 -107 q 537 227 537 104 q 526 425 537 320 l 639 425 l 672 567 l 515 567 q 509 648 509 626 q 607 734 509 734 q 681 724 633 734 l 734 1040 "},"≈":{"ha":701,"x_min":115,"x_max":586,"o":"m 586 545 l 586 687 l 497 687 l 497 580 l 241 677 q 171 691 205 691 q 115 633 115 691 l 115 491 l 204 491 l 204 598 l 460 500 q 530 487 496 487 q 586 545 586 487 m 586 277 l 586 419 l 497 419 l 497 312 l 241 409 q 171 423 205 423 q 115 365 115 423 l 115 223 l 204 223 l 204 330 l 460 233 q 530 219 496 219 q 586 277 586 219 "},"Δ":{"ha":555,"x_min":31,"x_max":526,"o":"m 526 0 l 526 80 q 431 547 526 81 q 325 1064 332 1025 l 232 1064 l 31 83 l 31 0 l 526 0 m 432 90 l 122 90 l 277 895 l 432 90 "},"«":{"ha":793,"x_min":74,"x_max":715,"o":"m 715 221 l 558 497 l 714 770 l 581 844 q 494 686 525 739 q 378 497 415 555 q 488 318 450 381 q 582 146 553 201 l 715 221 m 412 221 l 256 497 l 411 770 l 278 844 q 192 686 223 739 q 74 497 111 555 q 184 318 147 381 q 279 146 250 201 l 412 221 "},"»":{"ha":793,"x_min":77,"x_max":720,"o":"m 720 497 q 603 686 642 619 q 515 844 542 794 l 382 770 l 538 497 l 382 221 l 514 146 q 608 318 575 261 q 720 497 684 441 m 415 497 q 298 686 338 619 q 211 844 238 794 l 77 770 l 233 497 l 78 221 l 210 146 q 304 318 271 261 q 415 497 379 441 "},"…":{"ha":1264,"x_min":83,"x_max":1181,"o":"m 1181 107 q 1136 198 1181 163 q 1029 233 1090 233 q 919 198 964 233 q 875 109 875 163 q 920 18 875 54 q 1029 -18 966 -18 q 1135 18 1090 -18 q 1181 107 1181 54 m 781 107 q 734 199 781 163 q 629 233 691 233 q 519 198 564 233 q 475 109 475 163 q 520 18 475 54 q 629 -18 566 -18 q 735 18 690 -18 q 781 107 781 54 m 389 104 q 344 195 389 160 q 237 231 299 231 q 127 196 172 231 q 83 106 83 161 q 129 15 83 52 q 237 -21 174 -21 q 343 15 298 -21 q 389 104 389 51 "}," ":{"ha":139,"x_min":0,"x_max":0,"o":""},"À":{"ha":854,"x_min":-11,"x_max":857,"o":"m 857 0 q 728 546 774 342 q 624 1042 643 935 l 216 1042 q 123 553 179 810 q -11 0 33 168 l 186 0 l 222 131 q 256 62 244 87 l 294 -20 q 383 49 343 23 q 461 90 446 84 l 486 0 l 857 0 m 429 222 q 335 201 378 208 q 243 193 263 193 q 286 334 268 282 q 335 463 319 423 q 389 339 371 384 q 429 222 418 258 m 624 1205 q 488 1289 536 1256 q 360 1400 397 1362 q 304 1315 325 1346 q 252 1240 269 1263 q 407 1156 347 1181 q 567 1105 522 1115 q 595 1151 585 1136 l 624 1205 "},"Ã":{"ha":854,"x_min":-11,"x_max":857,"o":"m 857 0 q 728 546 774 342 q 624 1042 643 935 l 216 1042 q 123 553 179 810 q -11 0 33 168 l 186 0 l 222 131 q 256 62 244 87 l 294 -20 q 383 49 343 23 q 461 90 446 84 l 486 0 l 857 0 m 429 222 q 335 201 378 208 q 243 193 263 193 q 286 334 268 282 q 335 463 319 423 q 389 339 371 384 q 429 222 418 258 m 696 1271 l 593 1324 q 542 1272 577 1272 q 457 1299 518 1272 q 335 1326 396 1326 q 227 1274 277 1326 q 160 1158 180 1226 l 273 1111 q 328 1158 287 1158 q 431 1133 367 1158 q 535 1108 495 1108 q 696 1271 648 1108 "},"Õ":{"ha":961,"x_min":24,"x_max":937,"o":"m 937 543 q 805 944 937 798 q 482 1082 680 1082 q 156 945 281 1082 q 24 543 24 799 q 145 140 24 304 q 482 -35 274 -35 q 814 138 684 -35 q 937 543 937 304 m 611 424 q 574 282 611 351 q 482 207 534 207 q 392 281 429 207 q 359 422 359 347 q 484 612 359 612 q 611 424 611 612 m 744 1280 l 642 1333 q 590 1282 625 1282 q 505 1309 566 1282 q 383 1336 444 1336 q 275 1284 326 1336 q 208 1168 228 1236 l 321 1120 q 376 1168 335 1168 q 479 1143 415 1168 q 583 1118 543 1118 q 744 1280 696 1118 "},"Œ":{"ha":1283,"x_min":24,"x_max":1253,"o":"m 1253 1042 l 672 1042 q 482 1082 585 1082 q 156 945 281 1082 q 24 543 24 799 q 145 139 24 303 q 482 -35 274 -35 q 640 0 565 -35 l 1193 0 q 1217 104 1206 63 q 1242 205 1236 184 q 1157 189 1232 197 q 974 180 1023 180 l 981 332 q 1084 330 1048 332 q 1183 318 1164 323 q 1200 414 1190 372 q 1223 507 1217 482 q 985 504 1058 499 l 994 627 q 1116 624 1063 627 q 1223 612 1197 616 l 1253 1042 m 611 424 q 574 282 611 351 q 482 207 534 207 q 393 281 429 207 q 359 422 363 345 q 386 556 357 507 q 486 612 419 612 q 611 424 611 612 "},"œ":{"ha":1283,"x_min":24,"x_max":1253,"o":"m 1253 1042 l 672 1042 q 482 1082 585 1082 q 156 945 281 1082 q 24 543 24 799 q 145 139 24 303 q 482 -35 274 -35 q 640 0 565 -35 l 1193 0 q 1217 104 1206 63 q 1242 205 1236 184 q 1157 189 1232 197 q 974 180 1023 180 l 981 332 q 1084 330 1048 332 q 1183 318 1164 323 q 1200 414 1190 372 q 1223 507 1217 482 q 985 504 1058 499 l 994 627 q 1116 624 1063 627 q 1223 612 1197 616 l 1253 1042 m 611 424 q 574 282 611 351 q 482 207 534 207 q 393 281 429 207 q 359 422 363 345 q 386 556 357 507 q 486 612 419 612 q 611 424 611 612 "},"–":{"ha":685,"x_min":83,"x_max":602,"o":"m 602 446 l 83 446 l 117 239 l 571 239 l 602 446 "},"—":{"ha":1101,"x_min":83,"x_max":1018,"o":"m 1018 446 l 83 446 l 117 239 l 987 239 l 1018 446 "},"“":{"ha":571,"x_min":43,"x_max":543,"o":"m 543 643 q 481 868 510 743 q 428 1122 436 1071 l 257 1053 q 334 796 283 951 q 411 566 397 604 l 543 643 m 357 529 q 273 755 317 628 q 197 1003 208 959 l 43 905 q 131 677 81 799 q 228 456 208 497 l 357 529 "},"”":{"ha":571,"x_min":28,"x_max":528,"o":"m 528 905 l 374 1003 q 297 755 347 904 q 214 529 233 574 l 343 456 q 440 677 388 549 q 528 905 511 857 m 315 1053 l 144 1122 q 92 868 125 1008 q 28 643 43 688 l 160 566 q 239 796 193 654 q 315 1053 304 1008 "},"‘":{"ha":364,"x_min":52,"x_max":339,"o":"m 339 643 q 277 868 307 743 q 222 1122 231 1071 l 52 1053 q 127 796 77 951 q 207 566 193 604 l 339 643 "},"’":{"ha":364,"x_min":25,"x_max":313,"o":"m 313 1053 l 142 1122 q 89 868 123 1008 q 25 643 41 688 l 157 566 q 236 796 190 654 q 313 1053 302 1008 "},"÷":{"ha":760,"x_min":56,"x_max":704,"o":"m 704 574 l 56 574 l 89 411 l 673 411 l 704 574 m 495 239 q 460 309 495 282 q 379 336 426 336 q 293 310 328 336 q 258 240 258 283 q 294 171 258 199 q 379 143 330 143 q 460 171 425 143 q 495 239 495 199 m 495 743 q 460 814 495 786 q 379 841 426 841 q 293 814 328 841 q 258 745 258 787 q 294 675 258 703 q 379 647 330 647 q 460 675 425 647 q 495 743 495 703 "},"◊":{"ha":560,"x_min":20,"x_max":543,"o":"m 543 389 l 306 734 l 257 734 l 20 389 l 257 45 l 306 45 l 543 389 m 446 389 l 281 138 l 115 389 l 281 641 l 446 389 "},"ÿ":{"ha":975,"x_min":7,"x_max":966,"o":"m 966 1042 l 724 1042 q 685 904 700 952 q 615 720 641 782 l 550 903 q 507 1042 519 998 l 7 1042 q 163 770 109 869 q 281 534 245 607 q 306 269 300 339 q 318 0 315 84 l 665 0 q 679 265 675 172 q 700 534 692 439 q 839 806 787 709 l 966 1042 m 779 1203 q 750 1274 779 1244 q 678 1303 720 1303 q 608 1274 636 1303 q 579 1203 579 1244 q 608 1132 579 1161 q 677 1103 636 1103 q 749 1132 720 1103 q 779 1203 779 1160 m 507 1203 q 478 1274 507 1244 q 406 1303 448 1303 q 336 1274 364 1303 q 307 1203 307 1244 q 335 1132 307 1161 q 404 1103 363 1103 q 477 1132 448 1103 q 507 1203 507 1160 "},"Ÿ":{"ha":975,"x_min":7,"x_max":966,"o":"m 966 1042 l 724 1042 q 685 904 700 952 q 615 720 641 782 l 550 903 q 507 1042 519 998 l 7 1042 q 163 770 109 869 q 281 534 245 607 q 306 269 300 339 q 318 0 315 84 l 665 0 q 679 265 675 172 q 700 534 692 439 q 839 806 787 709 l 966 1042 m 779 1203 q 750 1274 779 1244 q 678 1303 720 1303 q 608 1274 636 1303 q 579 1203 579 1244 q 608 1132 579 1161 q 677 1103 636 1103 q 749 1132 720 1103 q 779 1203 779 1160 m 507 1203 q 478 1274 507 1244 q 406 1303 448 1303 q 336 1274 364 1303 q 307 1203 307 1244 q 335 1132 307 1161 q 404 1103 363 1103 q 477 1132 448 1103 q 507 1203 507 1160 "},"⁄":{"ha":814,"x_min":-32,"x_max":800,"o":"m 800 1069 l 623 1164 q 322 593 450 823 q -32 -36 37 84 l 92 -103 l 800 1069 "},"¤":{"ha":828,"x_min":96,"x_max":743,"o":"m 743 745 l 663 825 l 532 694 l 308 694 l 176 825 l 96 745 l 216 625 l 216 357 l 96 237 l 176 157 l 307 288 l 531 288 l 663 157 l 743 237 l 623 357 l 623 625 l 743 745 m 511 389 l 328 389 l 328 594 l 511 594 l 511 389 "},"‹":{"ha":492,"x_min":83,"x_max":408,"o":"m 408 222 l 258 498 l 408 771 l 279 846 q 197 688 227 741 q 83 498 120 557 q 191 319 155 382 q 281 147 252 203 l 408 222 "},"›":{"ha":492,"x_min":83,"x_max":408,"o":"m 408 498 q 294 688 332 621 q 212 846 237 795 l 83 771 l 233 498 l 83 222 l 211 147 q 301 319 269 262 q 408 498 374 443 "},"":{"ha":694,"x_min":87,"x_max":608,"o":"m 87 0 l 608 0 l 608 1107 l 87 1107 l 87 0 m 174 87 l 174 1021 l 521 1021 l 521 87 l 174 87 "},"":{"ha":694,"x_min":87,"x_max":608,"o":"m 87 0 l 608 0 l 608 1107 l 87 1107 l 87 0 m 174 87 l 174 1021 l 521 1021 l 521 87 l 174 87 "},"‡":{"ha":806,"x_min":28,"x_max":778,"o":"m 602 1040 l 203 1040 q 224 818 216 928 l 28 818 l 65 665 q 235 677 143 673 l 247 533 l 50 533 l 87 379 q 258 392 196 389 q 286 -69 279 101 q 514 -49 405 -54 q 539 393 521 155 q 715 380 597 393 l 751 533 l 551 533 q 564 678 557 607 q 742 665 667 674 l 778 818 l 577 818 q 602 1040 590 947 "},"·":{"ha":472,"x_min":83,"x_max":389,"o":"m 389 557 q 343 649 389 612 q 237 684 299 684 q 127 649 172 684 q 83 558 83 614 q 129 468 83 504 q 237 432 174 432 q 343 468 298 432 q 389 557 389 504 "},"‚":{"ha":364,"x_min":25,"x_max":313,"o":"m 313 353 l 142 422 q 89 168 123 309 q 25 -58 41 -14 l 157 -136 q 236 94 190 -47 q 313 353 302 308 "},"„":{"ha":571,"x_min":28,"x_max":528,"o":"m 528 239 l 374 335 q 297 87 347 236 q 214 -138 233 -93 l 343 -211 q 440 11 388 -118 q 528 239 511 190 m 315 386 l 144 456 q 92 201 125 342 q 28 -24 43 22 l 160 -103 q 239 127 193 -14 q 315 386 304 341 "},"‰":{"ha":1592,"x_min":41,"x_max":1564,"o":"m 1076 296 q 1012 517 1076 437 q 863 589 954 589 q 708 517 768 589 q 642 293 642 437 q 703 74 642 165 q 861 -21 766 -21 q 1013 73 950 -21 q 1076 296 1076 168 m 930 990 l 765 1063 l 191 14 l 298 -41 l 930 990 m 475 770 q 411 992 475 913 q 261 1064 353 1064 q 108 992 168 1064 q 41 770 41 913 q 101 550 41 640 q 260 456 163 456 q 411 549 348 456 q 475 770 475 643 m 918 207 q 903 144 918 174 q 861 113 886 113 q 819 144 836 113 q 803 207 803 173 q 861 296 803 296 q 918 207 918 296 m 317 682 q 300 621 317 650 q 260 589 283 589 q 218 619 235 589 q 203 681 203 647 q 260 770 203 770 q 317 682 317 770 m 1564 296 q 1499 517 1564 437 q 1350 589 1441 589 q 1196 517 1256 589 q 1129 293 1129 437 q 1190 74 1129 165 q 1349 -21 1253 -21 q 1501 73 1438 -21 q 1564 296 1564 168 m 1406 207 q 1390 144 1406 174 q 1349 113 1373 113 q 1306 144 1324 113 q 1291 207 1291 173 q 1349 296 1291 296 q 1406 207 1406 296 "},"Â":{"ha":854,"x_min":-11,"x_max":857,"o":"m 857 0 q 728 546 774 342 q 624 1042 643 935 l 216 1042 q 123 553 179 810 q -11 0 33 168 l 186 0 l 222 131 q 256 62 244 87 l 294 -20 q 383 49 343 23 q 461 90 446 84 l 486 0 l 857 0 m 429 222 q 335 201 378 208 q 243 193 263 193 q 286 334 268 282 q 335 463 319 423 q 389 339 371 384 q 429 222 418 258 m 696 1237 q 557 1298 610 1270 q 431 1376 469 1350 q 306 1298 355 1324 q 167 1237 208 1253 l 217 1105 q 332 1156 284 1133 q 431 1209 401 1192 q 536 1156 500 1172 l 646 1105 l 696 1237 "},"Ê":{"ha":771,"x_min":28,"x_max":741,"o":"m 741 1042 l 28 1042 q 54 532 49 714 l 74 0 l 681 0 q 704 104 694 63 q 729 205 724 184 q 644 189 670 191 q 457 180 508 181 l 464 332 q 572 330 536 332 q 671 318 651 323 q 688 414 678 372 q 711 507 704 482 q 468 504 543 502 l 478 633 q 603 627 546 632 q 711 612 686 616 l 741 1042 m 663 1236 q 524 1297 576 1269 q 397 1375 435 1349 q 273 1297 321 1322 q 134 1236 175 1252 l 184 1104 q 299 1154 251 1132 q 397 1208 368 1191 q 503 1154 467 1171 l 612 1104 l 663 1236 "},"Á":{"ha":854,"x_min":-11,"x_max":857,"o":"m 857 0 q 728 546 774 342 q 624 1042 643 935 l 216 1042 q 123 553 179 810 q -11 0 33 168 l 186 0 l 222 131 q 256 62 244 87 l 294 -20 q 383 49 343 23 q 461 90 446 84 l 486 0 l 857 0 m 429 222 q 335 201 378 208 q 243 193 263 193 q 286 334 268 282 q 335 463 319 423 q 389 339 371 384 q 429 222 418 258 m 611 1236 q 559 1311 576 1284 l 503 1396 q 375 1284 426 1318 q 239 1201 281 1225 q 270 1147 258 1166 l 298 1101 q 457 1152 395 1124 q 611 1236 566 1207 "},"Ë":{"ha":771,"x_min":28,"x_max":741,"o":"m 741 1042 l 28 1042 q 54 532 49 714 l 74 0 l 681 0 q 704 104 694 63 q 729 205 724 184 q 644 189 670 191 q 457 180 508 181 l 464 332 q 572 330 536 332 q 671 318 651 323 q 688 414 678 372 q 711 507 704 482 q 468 504 543 502 l 478 633 q 603 627 546 632 q 711 612 686 616 l 741 1042 m 629 1200 q 600 1271 629 1242 q 528 1300 570 1300 q 458 1271 486 1300 q 429 1200 429 1242 q 458 1129 429 1158 q 527 1100 486 1100 q 600 1129 570 1100 q 629 1200 629 1158 m 357 1200 q 328 1271 357 1242 q 256 1300 298 1300 q 186 1271 214 1300 q 157 1200 157 1242 q 185 1129 157 1158 q 254 1100 214 1100 q 328 1129 298 1100 q 357 1200 357 1158 "},"È":{"ha":771,"x_min":28,"x_max":741,"o":"m 741 1042 l 28 1042 q 54 532 49 714 l 74 0 l 681 0 q 704 104 694 63 q 729 205 724 184 q 644 189 670 191 q 457 180 508 181 l 464 332 q 572 330 536 332 q 671 318 651 323 q 688 414 678 372 q 711 507 704 482 q 468 504 543 502 l 478 633 q 603 627 546 632 q 711 612 686 616 l 741 1042 m 585 1201 q 448 1284 497 1252 q 321 1396 358 1358 q 265 1311 286 1342 q 212 1236 229 1259 q 368 1152 307 1177 q 528 1101 483 1111 q 555 1147 545 1132 l 585 1201 "},"Í":{"ha":526,"x_min":28,"x_max":498,"o":"m 498 1042 l 28 1042 l 74 0 l 454 0 q 472 488 465 309 l 498 1042 m 444 1236 q 392 1311 410 1284 l 336 1396 q 208 1284 259 1318 q 73 1201 114 1225 q 103 1147 92 1166 l 131 1101 q 290 1152 229 1124 q 444 1236 399 1207 "},"Î":{"ha":526,"x_min":0,"x_max":529,"o":"m 498 1042 l 28 1042 l 74 0 l 454 0 q 472 488 465 309 l 498 1042 m 529 1217 q 390 1278 443 1250 q 264 1356 302 1330 q 139 1278 188 1303 q 0 1217 41 1233 l 50 1085 q 165 1135 117 1113 q 264 1189 235 1172 q 370 1135 333 1152 l 479 1085 l 529 1217 "},"Ï":{"ha":526,"x_min":28,"x_max":501,"o":"m 498 1042 l 28 1042 l 74 0 l 454 0 q 472 488 465 309 l 498 1042 m 501 1200 q 472 1271 501 1242 q 400 1300 442 1300 q 330 1271 358 1300 q 301 1200 301 1242 q 330 1129 301 1158 q 399 1100 358 1100 q 471 1129 441 1100 q 501 1200 501 1158 m 229 1200 q 200 1271 229 1242 q 127 1300 170 1300 q 58 1271 86 1300 q 29 1200 29 1242 q 57 1129 29 1158 q 126 1100 85 1100 q 199 1129 170 1100 q 229 1200 229 1158 "},"Ì":{"ha":526,"x_min":28,"x_max":498,"o":"m 498 1042 l 28 1042 l 74 0 l 454 0 q 472 488 465 309 l 498 1042 m 456 1202 q 319 1286 368 1253 q 192 1397 229 1359 q 136 1312 157 1343 q 83 1237 100 1260 q 239 1153 178 1179 q 399 1103 354 1112 q 427 1148 416 1133 l 456 1202 "},"Ó":{"ha":961,"x_min":24,"x_max":937,"o":"m 937 543 q 805 944 937 798 q 482 1082 680 1082 q 156 945 281 1082 q 24 543 24 799 q 145 140 24 304 q 482 -35 274 -35 q 814 138 684 -35 q 937 543 937 304 m 611 424 q 574 282 611 351 q 482 207 534 207 q 392 281 429 207 q 359 422 359 347 q 484 612 359 612 q 611 424 611 612 m 659 1242 q 607 1318 625 1291 l 551 1402 q 423 1291 474 1324 q 288 1208 329 1232 q 318 1154 307 1173 l 346 1108 q 505 1158 444 1131 q 659 1242 614 1214 "},"Ô":{"ha":961,"x_min":24,"x_max":937,"o":"m 937 543 q 805 944 937 798 q 482 1082 680 1082 q 156 945 281 1082 q 24 543 24 799 q 145 140 24 304 q 482 -35 274 -35 q 814 138 684 -35 q 937 543 937 304 m 611 424 q 574 282 611 351 q 482 207 534 207 q 392 281 429 207 q 359 422 359 347 q 484 612 359 612 q 611 424 611 612 m 746 1237 q 607 1298 660 1270 q 481 1376 519 1350 q 356 1298 405 1324 q 217 1237 258 1253 l 267 1105 q 382 1156 334 1133 q 481 1209 452 1192 q 587 1156 550 1172 l 696 1105 l 746 1237 "},"Ò":{"ha":961,"x_min":24,"x_max":937,"o":"m 937 543 q 805 944 937 798 q 482 1082 680 1082 q 156 945 281 1082 q 24 543 24 799 q 145 140 24 304 q 482 -35 274 -35 q 814 138 684 -35 q 937 543 937 304 m 611 424 q 574 282 611 351 q 482 207 534 207 q 392 281 429 207 q 359 422 359 347 q 484 612 359 612 q 611 424 611 612 m 660 1208 q 524 1291 572 1259 q 396 1402 433 1364 q 340 1318 361 1349 q 288 1242 304 1265 q 443 1158 382 1184 q 603 1108 558 1118 q 631 1154 621 1139 l 660 1208 "},"Ú":{"ha":974,"x_min":22,"x_max":946,"o":"m 946 1042 l 611 1042 q 636 618 629 770 q 644 174 644 313 q 591 160 615 160 q 480 218 508 160 q 453 431 454 273 q 452 750 450 637 q 460 1042 456 952 l 22 1042 q 47 631 27 856 q 92 296 68 387 q 231 61 133 136 q 570 -28 347 -28 q 924 35 750 -28 q 930 603 924 415 l 946 1042 m 753 1244 q 701 1320 718 1293 l 645 1404 q 517 1293 568 1326 q 381 1210 422 1234 q 412 1156 400 1175 l 439 1110 q 599 1160 537 1133 q 753 1244 707 1216 "},"Û":{"ha":974,"x_min":22,"x_max":946,"o":"m 946 1042 l 611 1042 q 636 618 629 770 q 644 174 644 313 q 591 160 615 160 q 480 218 508 160 q 453 431 454 273 q 452 750 450 637 q 460 1042 456 952 l 22 1042 q 47 631 27 856 q 92 296 68 387 q 231 61 133 136 q 570 -28 347 -28 q 924 35 750 -28 q 930 603 924 415 l 946 1042 m 772 1243 q 633 1304 686 1276 q 507 1382 545 1356 q 382 1304 431 1330 q 243 1243 285 1259 l 294 1112 q 409 1162 361 1139 q 507 1215 478 1198 q 613 1162 576 1178 l 722 1112 l 772 1243 "},"Ù":{"ha":974,"x_min":22,"x_max":946,"o":"m 946 1042 l 611 1042 q 636 618 629 770 q 644 174 644 313 q 591 160 615 160 q 480 218 508 160 q 453 431 454 273 q 452 750 450 637 q 460 1042 456 952 l 22 1042 q 47 631 27 856 q 92 296 68 387 q 231 61 133 136 q 570 -28 347 -28 q 924 35 750 -28 q 930 603 924 415 l 946 1042 m 717 1202 q 581 1286 629 1253 q 453 1397 490 1359 q 397 1312 418 1343 q 345 1237 361 1260 q 500 1153 439 1179 q 660 1103 615 1112 q 688 1148 677 1133 l 717 1202 "},"ı":{"ha":526,"x_min":28,"x_max":498,"o":"m 498 1042 l 28 1042 l 74 0 l 454 0 q 472 488 465 309 l 498 1042 "},"ˆ":{"ha":868,"x_min":170,"x_max":699,"o":"m 699 1226 q 559 1287 612 1259 q 433 1365 471 1339 q 309 1287 357 1313 q 170 1226 211 1242 l 220 1095 q 335 1145 287 1122 q 433 1198 404 1181 q 539 1145 503 1161 l 648 1095 l 699 1226 "},"˜":{"ha":868,"x_min":167,"x_max":703,"o":"m 703 1274 l 600 1326 q 549 1275 584 1275 q 464 1302 525 1275 q 342 1329 403 1329 q 233 1277 284 1329 q 167 1161 186 1229 l 279 1114 q 335 1161 294 1161 q 438 1136 374 1161 q 542 1111 502 1111 q 703 1274 655 1111 "},"¯":{"ha":868,"x_min":90,"x_max":778,"o":"m 778 1242 l 90 1242 l 113 1111 l 757 1111 l 778 1242 "},"˘":{"ha":868,"x_min":89,"x_max":779,"o":"m 779 1388 l 690 1414 q 585 1308 650 1349 q 433 1261 513 1261 q 283 1308 355 1261 q 178 1414 218 1349 l 89 1388 q 232 1166 130 1244 q 432 1095 323 1095 q 635 1166 543 1095 q 779 1388 736 1244 "},"˙":{"ha":868,"x_min":311,"x_max":555,"o":"m 555 1211 q 519 1284 555 1255 q 433 1312 483 1312 q 346 1284 381 1312 q 311 1213 311 1257 q 348 1140 311 1168 q 435 1111 384 1111 q 519 1140 483 1111 q 555 1211 555 1168 "},"˚":{"ha":868,"x_min":264,"x_max":603,"o":"m 603 1263 q 553 1381 603 1333 q 435 1430 504 1430 q 314 1381 364 1430 q 264 1263 264 1333 q 314 1144 264 1193 q 435 1095 365 1095 q 553 1144 504 1095 q 603 1263 603 1193 m 490 1263 q 474 1223 490 1241 q 435 1204 457 1204 q 394 1222 411 1204 q 376 1263 376 1240 q 394 1303 376 1284 q 435 1321 411 1321 q 474 1302 457 1321 q 490 1263 490 1284 "},"¸":{"ha":868,"x_min":302,"x_max":549,"o":"m 549 -81 l 392 12 q 367 -110 392 -57 q 302 -203 318 -191 q 351 -243 337 -231 q 392 -282 376 -267 q 497 -193 460 -248 q 549 -81 539 -113 "},"˝":{"ha":868,"x_min":66,"x_max":822,"o":"m 822 1229 q 770 1304 787 1277 l 714 1389 q 586 1278 637 1311 q 450 1194 492 1219 q 481 1140 469 1160 l 509 1095 q 668 1145 612 1120 q 822 1229 777 1200 m 439 1229 q 386 1304 404 1277 l 330 1389 q 203 1278 253 1311 q 66 1194 109 1219 q 97 1140 85 1160 l 125 1095 q 285 1145 228 1120 q 439 1229 393 1200 "},"˛":{"ha":868,"x_min":309,"x_max":554,"o":"m 554 -203 q 490 -110 522 -174 q 465 12 465 -57 l 309 -81 q 359 -193 315 -127 q 428 -260 385 -231 q 465 -282 446 -272 q 505 -243 496 -251 q 554 -203 538 -216 "},"ˇ":{"ha":868,"x_min":170,"x_max":699,"o":"m 699 1231 l 648 1362 l 539 1312 q 433 1258 467 1276 q 335 1312 372 1295 q 220 1360 252 1348 l 170 1232 q 309 1169 257 1196 q 433 1092 397 1117 q 559 1169 513 1145 q 699 1231 658 1215 "},"Ł":{"ha":812,"x_min":18,"x_max":809,"o":"m 809 205 q 734 192 762 195 q 537 178 603 178 l 576 1042 l 105 1042 q 137 525 128 712 q 154 0 151 159 l 768 0 q 784 103 774 59 q 809 205 802 178 m 700 532 l 18 532 l 32 408 l 682 410 l 700 532 "},"ł":{"ha":812,"x_min":18,"x_max":809,"o":"m 809 205 q 734 192 762 195 q 537 178 603 178 l 576 1042 l 105 1042 q 137 525 128 712 q 154 0 151 159 l 768 0 q 784 103 774 59 q 809 205 802 178 m 700 532 l 18 532 l 32 408 l 682 410 l 700 532 "},"Š":{"ha":699,"x_min":22,"x_max":673,"o":"m 673 615 l 653 1040 q 428 1069 528 1069 q 144 996 251 1069 q 22 749 22 912 q 151 478 22 592 q 284 361 218 419 q 325 261 325 317 q 224 184 325 184 q 123 203 198 184 q 150 102 140 140 q 171 0 165 31 q 335 -16 224 -16 q 538 54 456 -16 q 624 240 624 127 q 566 411 624 318 q 507 536 507 504 q 539 605 507 578 q 597 627 566 627 q 673 615 623 627 m 616 1244 l 566 1376 l 457 1326 q 351 1272 385 1290 q 253 1326 290 1308 q 138 1373 170 1362 l 87 1246 q 227 1183 175 1210 q 351 1105 315 1131 q 477 1183 431 1158 q 616 1244 576 1229 "},"š":{"ha":699,"x_min":22,"x_max":673,"o":"m 673 615 l 653 1040 q 428 1069 528 1069 q 144 996 251 1069 q 22 749 22 912 q 151 478 22 592 q 284 361 218 419 q 325 261 325 317 q 224 184 325 184 q 123 203 198 184 q 150 102 140 140 q 171 0 165 31 q 335 -16 224 -16 q 538 54 456 -16 q 624 240 624 127 q 566 411 624 318 q 507 536 507 504 q 539 605 507 578 q 597 627 566 627 q 673 615 623 627 m 616 1244 l 566 1376 l 457 1326 q 351 1272 385 1290 q 253 1326 290 1308 q 138 1373 170 1362 l 87 1246 q 227 1183 175 1210 q 351 1105 315 1131 q 477 1183 431 1158 q 616 1244 576 1229 "},"Ž":{"ha":875,"x_min":20,"x_max":861,"o":"m 861 1042 l 20 1042 l 35 615 q 172 632 122 629 q 265 637 241 636 l 82 0 l 694 0 q 730 129 717 86 q 765 235 755 204 q 681 216 711 220 q 488 207 549 203 l 861 1042 m 699 1231 l 648 1362 l 539 1312 q 433 1258 467 1276 q 335 1312 372 1295 q 220 1360 252 1348 l 170 1232 q 309 1169 257 1196 q 433 1092 397 1117 q 559 1169 513 1145 q 699 1231 658 1215 "},"ž":{"ha":875,"x_min":20,"x_max":861,"o":"m 861 1042 l 20 1042 l 35 615 q 172 632 122 629 q 265 637 241 636 l 82 0 l 694 0 q 730 129 717 86 q 765 235 755 204 q 681 216 711 220 q 488 207 549 203 l 861 1042 m 699 1231 l 648 1362 l 539 1312 q 433 1258 467 1276 q 335 1312 372 1295 q 220 1360 252 1348 l 170 1232 q 309 1169 257 1196 q 433 1092 397 1117 q 559 1169 513 1145 q 699 1231 658 1215 "},"¦":{"ha":285,"x_min":36,"x_max":249,"o":"m 249 1203 l 36 1203 l 47 700 l 237 700 l 249 1203 m 229 375 l 56 375 l 69 -165 l 216 -165 l 229 375 "},"Ð":{"ha":1028,"x_min":21,"x_max":1007,"o":"m 1007 513 q 835 927 1007 785 q 388 1060 673 1060 q 81 1039 228 1060 q 113 504 104 698 l 131 0 q 414 -18 231 -18 q 855 127 699 -18 q 1007 513 1007 268 m 729 429 q 660 243 729 307 q 518 187 605 193 l 528 612 q 665 576 611 616 q 729 429 729 529 m 36 306 l 38 308 l 595 306 l 609 427 l 21 428 l 36 306 "},"ð":{"ha":1028,"x_min":21,"x_max":1007,"o":"m 1007 513 q 835 927 1007 785 q 388 1060 673 1060 q 81 1039 228 1060 q 113 504 104 698 l 131 0 q 414 -18 231 -18 q 855 127 699 -18 q 1007 513 1007 268 m 729 429 q 660 243 729 307 q 518 187 605 193 l 528 612 q 665 576 611 616 q 729 429 729 529 m 36 306 l 38 308 l 595 306 l 609 427 l 21 428 l 36 306 "},"Ý":{"ha":975,"x_min":7,"x_max":966,"o":"m 966 1042 l 724 1042 q 685 904 700 952 q 615 720 641 782 l 550 903 q 507 1042 519 998 l 7 1042 q 163 770 109 869 q 281 534 245 607 q 306 269 300 339 q 318 0 315 84 l 665 0 q 679 265 675 172 q 700 534 692 439 q 839 806 787 709 l 966 1042 m 794 1241 q 742 1316 760 1289 l 686 1401 q 558 1290 609 1323 q 422 1206 464 1231 q 453 1152 441 1172 l 481 1107 q 640 1157 578 1129 q 794 1241 749 1213 "},"ý":{"ha":975,"x_min":7,"x_max":966,"o":"m 966 1042 l 724 1042 q 685 904 700 952 q 615 720 641 782 l 550 903 q 507 1042 519 998 l 7 1042 q 163 770 109 869 q 281 534 245 607 q 306 269 300 339 q 318 0 315 84 l 665 0 q 679 265 675 172 q 700 534 692 439 q 839 806 787 709 l 966 1042 m 794 1241 q 742 1316 760 1289 l 686 1401 q 558 1290 609 1323 q 422 1206 464 1231 q 453 1152 441 1172 l 481 1107 q 640 1157 578 1129 q 794 1241 749 1213 "},"Þ":{"ha":924,"x_min":28,"x_max":903,"o":"m 903 538 q 494 958 903 904 q 498 1042 497 1007 l 28 1042 q 54 488 47 681 l 74 0 l 456 0 l 458 114 q 781 232 660 116 q 903 538 903 347 m 621 411 q 550 309 621 332 q 465 300 524 300 q 471 489 468 425 l 472 519 q 489 520 479 520 q 621 411 621 520 "},"þ":{"ha":924,"x_min":28,"x_max":903,"o":"m 903 538 q 494 958 903 904 q 498 1042 497 1007 l 28 1042 q 54 488 47 681 l 74 0 l 456 0 l 458 114 q 781 232 660 116 q 903 538 903 347 m 621 411 q 550 309 621 332 q 465 300 524 300 q 471 489 468 425 l 472 519 q 489 520 479 520 q 621 411 621 520 "},"­":{"ha":751,"x_min":83,"x_max":668,"o":"m 668 574 l 83 574 l 117 411 l 637 411 l 668 574 "},"×":{"ha":751,"x_min":114,"x_max":633,"o":"m 633 624 l 507 760 l 368 622 l 230 770 l 134 635 l 253 507 l 114 373 l 219 260 l 363 388 l 489 254 l 629 342 l 486 494 l 633 624 "},"¹":{"ha":461,"x_min":7,"x_max":408,"o":"m 408 1029 l 351 1059 q 7 914 214 991 l 61 749 q 139 766 115 763 q 144 574 142 657 q 147 310 149 448 l 392 310 q 408 1029 398 850 "},"²":{"ha":511,"x_min":24,"x_max":493,"o":"m 493 832 q 420 988 493 929 q 225 1047 347 1047 q 50 1021 129 1047 l 24 755 q 100 774 65 774 q 160 755 136 774 q 191 689 191 732 q 151 548 191 627 q 37 364 123 492 l 65 310 l 414 310 q 436 385 429 360 q 463 461 454 437 q 336 452 389 452 l 261 452 q 394 599 357 550 q 493 832 493 730 "},"³":{"ha":546,"x_min":28,"x_max":522,"o":"m 522 838 q 446 991 522 934 q 253 1047 371 1047 q 50 1018 138 1047 l 28 771 q 142 790 86 790 q 218 733 218 790 q 131 663 218 671 l 153 557 q 176 558 165 558 q 247 538 222 558 q 269 496 269 521 q 247 451 269 469 q 189 433 224 433 q 82 453 150 433 q 106 375 99 399 l 125 302 q 239 296 153 296 q 399 338 336 296 q 468 469 468 385 q 366 607 468 565 l 366 610 q 522 838 522 678 "},"½":{"ha":1431,"x_min":7,"x_max":1383,"o":"m 408 1029 l 351 1059 q 7 914 214 991 l 61 749 q 139 766 115 763 q 144 574 142 657 q 147 310 149 448 l 392 310 q 408 1029 398 850 m 1081 1069 l 903 1164 q 603 593 730 823 q 249 -36 318 84 l 372 -103 l 1081 1069 m 1383 522 q 1310 679 1383 620 q 1115 737 1237 737 q 940 711 1019 737 l 913 446 q 989 464 955 464 q 1050 445 1025 464 q 1080 379 1080 422 q 1040 238 1080 317 q 927 54 1013 183 l 955 0 l 1303 0 q 1326 75 1318 50 q 1352 151 1343 127 q 1226 142 1279 142 l 1151 142 q 1284 290 1246 241 q 1383 522 1383 420 "},"¼":{"ha":1415,"x_min":7,"x_max":1377,"o":"m 408 1029 l 351 1059 q 7 914 214 991 l 61 749 q 139 766 115 763 q 144 574 142 657 q 147 310 149 448 l 392 310 q 408 1029 398 850 m 1081 1069 l 903 1164 q 603 593 730 823 q 249 -36 318 84 l 372 -103 l 1081 1069 m 1377 245 q 1267 233 1325 233 l 1265 233 l 1285 729 l 1008 729 q 1016 546 1013 632 l 874 546 q 875 529 874 545 q 876 497 876 512 q 745 121 876 328 l 747 117 l 1029 117 q 1033 0 1033 51 l 1263 0 q 1265 117 1263 52 l 1338 117 q 1356 182 1349 159 l 1377 245 m 1031 235 l 951 235 q 1027 382 987 284 l 1029 382 q 1031 235 1031 287 "},"¾":{"ha":1415,"x_min":28,"x_max":1377,"o":"m 1118 1069 l 940 1164 q 640 593 767 823 q 286 -36 355 84 l 409 -103 l 1118 1069 m 522 838 q 446 991 522 934 q 253 1047 371 1047 q 50 1018 138 1047 l 28 771 q 142 790 86 790 q 218 733 218 790 q 131 663 218 671 l 153 557 q 176 558 165 558 q 247 538 222 558 q 269 496 269 521 q 247 451 269 469 q 189 433 224 433 q 82 453 150 433 q 106 375 99 399 l 125 302 q 239 296 153 296 q 399 338 336 296 q 468 469 468 385 q 366 607 468 565 l 366 610 q 522 838 522 678 m 1377 245 q 1267 233 1325 233 l 1265 233 l 1285 729 l 1008 729 q 1016 546 1013 632 l 874 546 q 875 529 874 545 q 876 497 876 512 q 745 121 876 328 l 747 117 l 1029 117 q 1033 0 1033 51 l 1263 0 q 1265 117 1263 52 l 1338 117 q 1356 182 1349 159 l 1377 245 m 1031 235 l 951 235 q 1027 382 987 284 l 1029 382 q 1031 235 1031 287 "},"€":{"ha":928,"x_min":14,"x_max":897,"o":"m 897 615 l 875 1040 q 689 1055 818 1055 q 269 902 421 1055 q 126 525 126 758 l 126 517 l 14 517 l 22 414 l 136 414 q 151 350 140 392 l 25 350 l 35 261 l 184 261 q 385 45 253 123 q 660 -29 511 -29 q 854 0 779 -29 q 872 103 863 54 q 896 205 888 178 q 768 172 835 172 q 586 261 646 172 l 803 261 l 812 350 l 551 350 q 549 386 549 375 q 550 414 549 406 l 818 414 l 825 517 l 585 517 q 802 627 656 627 q 897 615 859 627 "}}}
